<?xml version="1.0" encoding="UTF-8" standalone="no"?>
<!-- Created with Inkscape (http://www.inkscape.org/) -->

<svg
   xmlns:dc="http://purl.org/dc/elements/1.1/"
   xmlns:cc="http://creativecommons.org/ns#"
   xmlns:rdf="http://www.w3.org/1999/02/22-rdf-syntax-ns#"
   xmlns:svg="http://www.w3.org/2000/svg"
   xmlns="http://www.w3.org/2000/svg"
   xmlns:xlink="http://www.w3.org/1999/xlink"
   xmlns:sodipodi="http://sodipodi.sourceforge.net/DTD/sodipodi-0.dtd"
   xmlns:inkscape="http://www.inkscape.org/namespaces/inkscape"
   width="744.09448819"
   height="1052.3622047"
   id="svg2"
   version="1.1"
   inkscape:version="0.48.4 r9939"
   sodipodi:docname="Fig1.svg">
  <defs
     id="defs4" />
  <sodipodi:namedview
     id="base"
     pagecolor="#ffffff"
     bordercolor="#666666"
     borderopacity="1.0"
     inkscape:pageopacity="0.0"
     inkscape:pageshadow="2"
     inkscape:zoom="1.0926032"
     inkscape:cx="380.14544"
     inkscape:cy="763.52902"
     inkscape:document-units="px"
     inkscape:current-layer="layer1"
     showgrid="false"
     inkscape:window-width="1039"
     inkscape:window-height="832"
     inkscape:window-x="1745"
     inkscape:window-y="68"
     inkscape:window-maximized="0" />
  <metadata
     id="metadata7">
    <rdf:RDF>
      <cc:Work
         rdf:about="">
        <dc:format>image/svg+xml</dc:format>
        <dc:type
           rdf:resource="http://purl.org/dc/dcmitype/StillImage" />
        <dc:title />
      </cc:Work>
    </rdf:RDF>
  </metadata>
  <g
     inkscape:label="Layer 1"
     inkscape:groupmode="layer"
     id="layer1">
    <image
       y="13.141361"
       x="9.0133848"
       id="image2993"
       xlink:href="file:///C:/Users/johann/Documents/FSharp%20Deep%20Dives/Capture1.PNG"
       height="175.64655"
       width="317.86826" />
    <image
       y="142.69093"
       x="131.52835"
       id="image3004"
       xlink:href="file:///C:/Users/johann/Documents/FSharp%20Deep%20Dives/Capture2.PNG"
       height="189.29047"
       width="314.75043" />
    <image
       y="296.53693"
       x="359.81598"
       id="image3015"
       xlink:href="file:///C:/Users/johann/Documents/FSharp%20Deep%20Dives/Capture3.PNG"
       height="188.61705"
       width="313.77417"
       style="fill:#ff0000" />
    <path
       style="fill:#ff0000;fill-opacity:1;stroke:none"
       id="path3018"
       d="m 58.033522,197.84545 c -0.06308,2.09368 -0.04563,4.18895 -0.04095,6.28333 0.0056,1.94298 0.0089,3.88596 0.01058,5.82894 0.0013,1.83348 0.0013,3.66696 0.0013,5.50044 -1.1e-5,1.82893 -5.8e-5,3.65785 -8.2e-5,5.48677 -2.2e-5,1.83035 -2.4e-5,3.66069 -2.6e-5,5.49104 -1e-6,1.8305 -1e-6,3.66101 0,5.49151 0.1392,1.58873 0.588249,3.11398 1.189964,4.58335 0.601921,1.72879 1.618877,3.25171 2.414662,4.88548 0.692914,1.29785 1.635057,2.42666 2.406072,3.67591 0.784316,1.19617 1.768774,2.22376 2.682786,3.31451 1.101047,0.9478 2.03019,2.06689 3.094601,3.05086 1.187568,0.95206 2.364399,1.92647 3.576025,2.85074 0.948923,0.91824 2.054765,1.73299 3.265412,2.27171 1.280188,0.74742 2.530182,1.53151 3.790812,2.30948 1.391786,1.07537 3.036421,1.69817 4.566592,2.52246 1.40597,0.59481 2.830054,1.18612 4.289347,1.64731 1.605503,0.64564 3.233145,1.26506 4.898541,1.743 1.672594,0.24015 3.244235,0.8528 4.89828,1.17832 0,0 -7.401136,5.13916 -7.401136,5.13916 l 0,0 c -1.647592,-0.38998 -3.258781,-0.91835 -4.92076,-1.25068 -1.665253,-0.53039 -3.309083,-1.13001 -4.942914,-1.74958 -1.470273,-0.5342 -2.952416,-1.06872 -4.348836,-1.77429 -1.574124,-0.79682 -3.173952,-1.54611 -4.619634,-2.57322 -1.226037,-0.78435 -2.484272,-1.50844 -3.751581,-2.22461 -1.219579,-0.65599 -2.364096,-1.46947 -3.361532,-2.43204 -1.207756,-0.97402 -2.438929,-1.92021 -3.620439,-2.9242 -1.059158,-1.03541 -2.063338,-2.1254 -3.15267,-3.12988 -0.951609,-1.1147 -1.924839,-2.20757 -2.733137,-3.43602 -0.799337,-1.26779 -1.774099,-2.41858 -2.446713,-3.76655 -0.783349,-1.65546 -1.800482,-3.19695 -2.426817,-4.92917 -0.678469,-1.56826 -1.169412,-3.19591 -1.356683,-4.90087 0,-1.83051 0,-3.66101 -1e-6,-5.49152 -2e-6,-1.83033 -4e-6,-3.66067 -2.5e-5,-5.49101 -2.4e-5,-1.82889 -7.2e-5,-3.65778 -8.3e-5,-5.48668 3.1e-5,-1.83392 9e-6,-3.66785 0.0013,-5.50178 0.0017,-1.94658 0.005,-3.89315 0.01058,-5.83972 0.0046,-2.08047 0.02266,-4.16186 -0.04095,-6.2416 0,0 8.068091,-4.1109 8.068091,-4.1109 z"
       inkscape:connector-curvature="0" />
    <path
       style="fill:#ff0000;fill-opacity:1;stroke:none"
       id="path3020"
       d="m 92.880118,246.27468 c 0.559894,1.73615 1.025933,3.49396 1.655115,5.20636 0.465223,1.4142 1.109267,2.76486 1.785402,4.08915 0.760941,1.30033 1.48439,2.62583 2.293954,3.89613 0.802529,1.19062 1.579271,2.42135 2.450651,3.56585 0.63673,1.00206 1.48424,1.83651 2.24202,2.74217 0,0 -7.740126,4.65381 -7.740126,4.65381 l 0,0 c -0.776401,-0.91114 -1.603168,-1.78585 -2.255427,-2.79499 -0.870435,-1.17808 -1.705317,-2.39486 -2.494984,-3.62634 -0.807239,-1.30425 -1.548667,-2.64805 -2.3392,-3.96351 -0.689515,-1.35941 -1.345716,-2.74804 -1.810652,-4.20157 -0.630287,-1.75661 -1.061993,-3.5689 -1.770429,-5.29862 0,0 7.983676,-4.26844 7.983676,-4.26844 z"
       inkscape:connector-curvature="0" />
    <path
       style="fill:#ff0000;fill-opacity:1;stroke:none"
       id="path3022"
       d="m 73.111485,279.40924 c 0.241946,-0.16524 0.472477,-0.34859 0.725838,-0.49574 23.717352,-13.59281 1.166698,-0.6492 1.738157,-0.99403 2.809974,-1.69561 5.666495,-3.3133 8.522836,-4.92958 3.355859,-1.89894 -1.41178,1.04973 1.615447,-0.85379 1.407256,-0.63566 2.837222,-1.28223 4.318287,-1.73765 1.606231,-0.54203 3.296906,-0.81808 4.912327,-1.3254 1.72525,-0.67146 3.620888,-0.56756 5.372843,-1.06998 1.28842,-0.42039 2.62944,-0.58712 3.97289,-0.7051 0,0 -7.226857,5.37052 -7.226857,5.37052 l 0,0 c -1.323782,0.17073 -2.623824,0.43924 -3.912987,0.78698 -1.792078,0.29518 -3.601252,0.50475 -5.330274,1.09879 -1.650087,0.41387 -3.290242,0.84809 -4.904777,1.38886 -1.422884,0.5575 -2.876039,1.07185 -4.194153,1.85477 -0.995669,0.52387 -1.63869,0.86247 -1.601592,0.84068 2.267986,-1.33163 9.100792,-5.27709 6.826862,-3.95563 -28.59049,16.61492 4.63381,-2.71505 -2.420763,1.38015 0,0 -8.414084,3.34615 -8.414084,3.34615 z"
       inkscape:connector-curvature="0" />
    <path
       style="fill:#ff0000;fill-opacity:1;stroke:none"
       id="path3024"
       d="m 460.91767,214.9972 c 1.9352,-0.0976 3.81782,0.35688 5.72141,0.62524 1.63766,0.21772 3.18989,0.77864 4.83223,1.01394 1.40746,0.62857 2.96966,0.69023 4.41116,1.16724 1.43784,0.33442 2.79609,0.87369 4.2061,1.29731 1.40943,0.43061 2.74683,0.96141 4.21666,1.19376 1.47579,0.52061 2.98938,0.8817 4.48576,1.33373 1.73399,0.46168 3.42917,1.04449 5.08971,1.72146 1.67873,0.59585 3.3192,1.31794 4.90739,2.12643 1.7548,0.69507 3.31062,1.77913 5.02187,2.55534 1.68436,0.72636 3.30631,1.53825 4.89833,2.45078 1.36698,0.71088 2.74881,1.46292 4.00803,2.35691 1.25444,0.90677 2.49601,1.82089 3.79056,2.67693 1.5508,0.71734 2.76933,1.88829 4.08471,2.93687 1.1189,0.96655 2.12609,2.05388 3.23662,3.02741 0.9338,0.91542 1.80492,1.90111 2.78203,2.77153 1.07356,1.03755 2.01601,2.19513 3.00146,3.31786 1.33426,1.47609 2.57579,3.02911 3.83015,4.57378 1.03769,1.51019 2.33688,2.81139 3.50612,4.21542 1.08563,1.02389 2.02918,2.11424 2.81321,3.38217 0.62629,1.38749 1.64921,2.52587 2.38486,3.84564 0.75522,1.15716 1.45819,2.36998 2.01583,3.63671 0.85947,1.19907 1.10415,2.63029 1.54544,3.99703 0.37456,0.96493 0.58802,1.97219 0.76333,2.98823 0,0 -7.96062,4.22171 -7.96062,4.22171 l 0,0 c -0.1532,-0.97325 -0.34359,-1.93843 -0.70809,-2.85901 -0.44985,-1.33618 -0.64928,-2.74849 -1.50924,-3.92203 -0.53653,-1.2449 -1.24308,-2.42176 -1.96969,-3.56295 -0.72328,-1.30527 -1.73071,-2.43796 -2.35393,-3.80592 -0.78152,-1.21474 -1.72753,-2.25796 -2.74202,-3.28709 -1.16798,-1.40701 -2.44164,-2.73038 -3.48477,-4.23693 -1.25574,-1.52584 -2.46508,-3.09303 -3.81764,-4.53506 -0.98758,-1.08501 -1.94557,-2.19599 -3.00063,-3.21618 -0.94693,-0.89943 -1.84593,-1.84832 -2.77293,-2.76792 -1.06745,-0.99565 -2.08903,-2.03895 -3.18946,-2.99983 -1.27425,-1.05391 -2.53843,-2.1089 -4.02678,-2.86159 -1.31334,-0.84209 -2.53823,-1.79351 -3.81515,-2.68492 -1.27826,-0.83636 -2.62145,-1.5825 -3.96599,-2.3059 -1.5629,-0.92111 -3.20571,-1.64888 -4.85674,-2.39457 -1.6723,-0.8511 -3.26592,-1.85449 -5.0067,-2.57356 -1.60114,-0.75747 -3.22935,-1.4572 -4.89558,-2.06004 -1.6368,-0.67018 -3.332,-1.18213 -5.03602,-1.65316 -1.47337,-0.43946 -2.96774,-0.80174 -4.43967,-1.24508 -1.47319,-0.30612 -2.84603,-0.87372 -4.28987,-1.28175 -1.38817,-0.46515 -2.77738,-0.89645 -4.19135,-1.27869 -1.44923,-0.35302 -2.91258,-0.63805 -4.33854,-1.08529 -1.61546,-0.29247 -3.16996,-0.84282 -4.80633,-1.01617 -1.89169,-0.29169 -3.77528,-0.65085 -5.7009,-0.47737 0,0 7.32567,-5.32242 7.32567,-5.32242 z"
       inkscape:connector-curvature="0" />
    <path
       style="fill:#ff0000;fill-opacity:1;stroke:none"
       id="path3026"
       d="m 521.26985,268.816 c 2.07349,-0.33966 4.16713,-0.51328 6.26354,-0.62585 1.95169,-0.0885 3.90578,-0.0923 5.85906,-0.0957 1.80649,0.13204 3.46657,0.7523 5.1764,1.27493 1.29084,0.70118 2.686,1.11882 4.03578,1.68107 1.49254,0.54073 2.96896,1.10361 4.42672,1.73288 1.22805,0.38676 2.4614,0.66483 3.68386,1.07473 0,0 -7.46424,5.06603 -7.46424,5.06603 l 0,0 c -1.2364,-0.40557 -2.52303,-0.63113 -3.72267,-1.1458 -1.45297,-0.63475 -2.95511,-1.13808 -4.43157,-1.71554 -1.32094,-0.55641 -2.68735,-0.99023 -3.97664,-1.62325 -1.62876,-0.53407 -3.26199,-1.03642 -4.99688,-1.06093 -1.93698,0.006 -3.87504,0.015 -5.80962,0.12245 -2.09991,0.13571 -4.20246,0.32642 -6.26139,0.77974 0,0 7.21765,-5.46481 7.21765,-5.46481 z"
       inkscape:connector-curvature="0" />
    <path
       style="fill:#ff0000;fill-opacity:1;stroke:none"
       id="path3028"
       d="m 557.55288,254.74485 c -1.33752,1.30748 -2.24638,2.90172 -3.16946,4.5057 -0.7276,1.34023 -1.34741,2.7075 -1.87233,4.13662 -0.65241,1.32591 -0.84781,2.79378 -1.28413,4.19072 -0.50292,1.4647 -0.58445,3.01515 -0.96725,4.50817 0,0 -8.14217,3.88083 -8.14217,3.88083 l 0,0 c 0.42963,-1.50232 0.55853,-3.02962 0.94638,-4.5438 0.46568,-1.41608 0.67906,-2.88013 1.24828,-4.26275 0.33293,-0.68884 0.47225,-1.40593 0.7815,-2.10411 0.65379,-1.47606 0.0168,0.1146 0.74141,-1.32786 0.13063,-0.26004 0.22317,-0.53752 0.33476,-0.80627 0.87384,-1.61603 1.71193,-3.32163 3.06727,-4.59369 0,0 8.31574,-3.58356 8.31574,-3.58356 z"
       inkscape:connector-curvature="0" />
    <text
       xml:space="preserve"
       style="font-size:11px;font-style:normal;font-variant:normal;font-weight:normal;font-stretch:normal;text-align:center;line-height:125%;letter-spacing:0px;word-spacing:0px;text-anchor:middle;fill:#000000;fill-opacity:1;stroke:none;font-family:Arial;-inkscape-font-specification:Arial"
       x="667.21387"
       y="39.185562"
       id="text3030"
       sodipodi:linespacing="125%"><tspan
         sodipodi:role="line"
         x="667.21387"
         y="39.185562"
         id="tspan3006">Initial screen</tspan></text>
    <text
       xml:space="preserve"
       style="font-size:11px;font-style:normal;font-variant:normal;font-weight:normal;font-stretch:normal;text-align:center;line-height:125%;letter-spacing:0px;word-spacing:0px;text-anchor:middle;fill:#000000;fill-opacity:1;stroke:none;font-family:Arial;-inkscape-font-specification:Arial"
       x="678.19678"
       y="133.45584"
       id="text3034"
       sodipodi:linespacing="125%"><tspan
         sodipodi:role="line"
         x="678.19678"
         y="133.45584"
         id="tspan3008">Gameplay screen</tspan></text>
    <text
       xml:space="preserve"
       style="font-size:11px;font-style:normal;font-variant:normal;font-weight:normal;font-stretch:normal;text-align:center;line-height:125%;letter-spacing:0px;word-spacing:0px;text-anchor:middle;fill:#000000;fill-opacity:1;stroke:none;font-family:Arial;-inkscape-font-specification:Arial"
       x="168.40515"
       y="395.216"
       id="text3042"
       sodipodi:linespacing="125%"><tspan
         sodipodi:role="line"
         id="tspan3044"
         x="168.40515"
         y="395.216">Score board</tspan></text>
    <path
       style="fill:#000080;fill-opacity:1;stroke:none"
       id="path3052"
       d="m 621.63585,35.407698 c -2.08374,-0.01257 -4.16755,-0.009 -6.25131,-0.0081 -1.94574,0.0011 -3.89148,0.0018 -5.83722,0.0021 -1.83382,2.57e-4 -3.66765,2.53e-4 -5.50147,2.59e-4 -1.8289,-2e-6 -3.6578,-1.2e-5 -5.4867,-1.6e-5 -1.83034,-4e-6 -3.66068,-5e-6 -5.49101,-5e-6 -1.83051,-1e-6 -3.66102,0 -5.49152,0 -2.09906,9.34e-4 -4.19811,-0.0038 -6.29717,-0.0045 -2.14787,5.58e-4 -4.29573,0.0025 -6.4436,0.0035 -1.85852,8.03e-4 -3.71704,9.07e-4 -5.57557,9.8e-4 -1.8273,4e-5 -3.6546,1.7e-5 -5.48191,6e-6 -1.9669,0.0013 -3.9338,-0.0023 -5.9007,-0.0024 -1.98824,5.32e-4 -3.97649,0.0015 -5.96473,0.002 -2.06305,-0.0018 -4.12609,-0.0021 -6.18914,-0.0013 -2.19724,-0.108499 -4.36028,0.318671 -6.53555,0.560385 -2.14452,0.232674 -4.30075,0.307026 -6.45603,0.345532 -1.85775,0.02332 -3.71571,0.01794 -5.57357,0.01589 -1.82718,-0.0025 -3.65437,-0.0037 -5.48155,-0.0043 -1.82986,-5.24e-4 -3.65971,-5.09e-4 -5.48956,-5.2e-4 -1.83051,6e-6 -3.66101,2.5e-5 -5.49151,3.5e-5 -1.88162,-0.06656 -3.72728,-0.003 -5.58669,0.27457 -2.05328,0.336217 -4.12691,0.495937 -6.20363,0.585343 -1.86772,0.06373 -3.73682,0.06136 -5.60537,0.06184 -1.82918,-0.0015 -3.65836,-0.0039 -5.48755,-0.0052 -1.82981,-0.0011 -3.65962,-0.0012 -5.48944,-0.0013 -1.82635,0.279719 -3.64233,0.59263 -5.48383,0.75951 -1.8293,0.140222 -3.66499,0.15051 -5.4986,0.160214 -1.83067,0.0045 -3.66136,2.39e-4 -5.49203,-0.0017 -1.83047,-0.0019 -3.66093,-0.0023 -5.4914,-0.0026 -1.83049,-1.92e-4 -3.66097,-1.52e-4 -5.49146,-1.38e-4 -1.85446,-0.136876 -3.65803,0.299224 -5.47937,0.567277 -1.82312,0.252345 -3.66445,0.304299 -5.502,0.338018 -1.83095,0.02261 -3.66209,0.01687 -5.49313,0.01479 -1.83047,-0.0025 -3.66095,-0.0037 -5.49142,-0.0043 -1.84368,0.0058 -3.65277,0.458356 -5.48157,0.675861 -1.82689,0.193031 -3.66523,0.219284 -5.50043,0.238528 -1.8308,0.01149 -3.66166,0.0063 -5.49248,0.0041 -1.83046,-0.0023 -3.66093,-0.003 -5.4914,-0.0035 -1.83048,-3.25e-4 -3.66097,-2.9e-4 -5.49145,-2.83e-4 -1.83049,1.5e-5 -3.66098,2.9e-5 -5.49147,3.6e-5 -1.85446,-0.136887 -3.65803,0.299203 -5.47937,0.567252 -1.82313,0.252341 -3.66445,0.304295 -5.502,0.338014 -1.83095,0.02261 -3.66209,0.01687 -5.49313,0.01479 -1.83048,-0.0025 -3.66095,-0.0037 -5.49142,-0.0043 -1.83048,-5.13e-4 -3.66096,-4.96e-4 -5.49144,-5.05e-4 -1.76062,-0.02577 -3.49026,-0.07566 -5.21809,0.283982 -1.61001,0.378576 -3.25879,0.501023 -4.90574,0.578244 -1.01782,0.203255 -0.51416,0.09366 -1.51114,0.328093 0,0 2.1523,-1.638308 2.1523,-1.638308 l 0,0 c 1.00815,-0.220384 0.49675,-0.124097 1.5345,-0.287242 1.64204,-0.08796 3.28128,-0.235812 4.88633,-0.612656 1.73604,-0.325557 3.48315,-0.241696 5.24365,-0.237291 1.8305,1.6e-5 3.661,10e-6 5.4915,5.86e-4 1.83051,7.26e-4 3.66102,0.002 5.49153,0.0045 1.82994,0.0019 3.66001,0.0075 5.48981,-0.01933 1.83117,-0.03883 3.66588,-0.100223 5.48095,-0.365587 1.82726,-0.277473 3.64253,-0.670425 5.50357,-0.535375 1.83049,-7e-6 3.66098,-2.2e-5 5.49147,-3.5e-5 1.8305,-3e-6 3.661,-3.3e-5 5.4915,3.39e-4 1.83051,4.92e-4 3.66103,0.0013 5.49154,0.0037 1.83015,0.0021 3.66035,0.0074 5.49047,-0.0069 1.82961,-0.02282 3.66253,-0.05531 5.48251,-0.262244 1.83178,-0.230266 3.64872,-0.676556 5.50137,-0.649561 1.83051,7.26e-4 3.66102,0.002 5.49153,0.0045 1.82994,0.0019 3.66002,0.0075 5.48982,-0.01933 1.83117,-0.03883 3.66587,-0.100223 5.48094,-0.365592 1.82726,-0.277477 3.64253,-0.67044 5.50357,-0.535399 1.8305,-1.2e-5 3.66099,-5e-5 5.49149,1.74e-4 1.83051,3.17e-4 3.66103,8.2e-4 5.49154,0.0028 1.83031,0.002 3.66062,0.0065 5.49092,2.08e-4 1.82907,-0.01209 3.66049,-0.02628 5.4844,-0.179188 1.84395,-0.179962 3.66028,-0.525311 5.49899,-0.73923 1.82986,1.04e-4 3.65972,2.32e-4 5.48958,0.0014 1.82907,0.0014 3.65815,0.004 5.48723,0.0051 1.86535,-0.0012 3.73133,6.2e-5 5.59567,-0.06954 2.07094,-0.09618 4.1377,-0.267141 6.1849,-0.605535 1.86738,-0.272101 3.72911,-0.291502 5.61528,-0.246656 1.83051,-1e-5 3.66101,-3e-5 5.49151,-3.4e-5 1.82989,1.5e-5 3.65978,6e-6 5.48966,5.72e-4 1.82722,7.14e-4 3.65445,0.002 5.48166,0.0045 1.85593,0.002 3.71198,0.0073 5.56779,-0.01823 2.14701,-0.04128 4.2949,-0.119791 6.43057,-0.35807 2.18246,-0.2498 4.35564,-0.660158 6.56178,-0.542226 2.06423,8.16e-4 4.12846,4.94e-4 6.19269,-0.0013 1.98644,4.89e-4 3.97289,0.0014 5.95934,0.002 1.96913,-8.1e-5 3.93826,-0.0037 5.90739,-0.0024 1.8273,-1e-5 3.65459,-3.3e-5 5.48189,7e-6 1.85763,7.3e-5 3.71525,1.76e-4 5.57287,9.8e-4 2.14461,0.001 4.28922,0.003 6.43383,0.0035 2.10321,-6.75e-4 4.20641,-0.0054 6.30961,-0.0045 1.83051,0 3.66101,0 5.49152,0 1.83034,0 3.66068,-1e-6 5.49103,-5e-6 1.82891,-5e-6 3.65783,-1.4e-5 5.48674,-1.6e-5 1.83359,6e-6 3.66717,1e-6 5.50076,2.59e-4 1.94381,3.42e-4 3.88763,9.83e-4 5.83145,0.0021 2.0912,9.25e-4 4.18244,0.0044 6.27362,-0.0081 0,0 -2.1977,1.596724 -2.1977,1.596724 z"
       inkscape:connector-curvature="0" />
    <path
       style="fill:#000080;fill-opacity:1;stroke:none"
       id="path3054"
       d="m 365.88185,39.958205 c 1.93822,-0.557153 3.76717,-1.403645 5.71195,-1.939621 1.57362,-0.589558 3.12632,-1.242265 4.73259,-1.738702 0.24445,-0.110744 0.48801,-0.22348 0.73335,-0.332232 2.60491,-1.154663 -2.66774,1.655988 -0.3745,0.268886 0,0 2.52605,-0.975319 2.52605,-0.975319 l 0,0 c -1.62827,0.980981 -3.22186,2.045102 -5.01894,2.691814 -1.59705,0.521883 -3.14861,1.171801 -4.73373,1.728782 -1.93626,0.563654 -3.78396,1.379007 -5.71037,1.974172 0,0 2.1336,-1.67778 2.1336,-1.67778 z"
       inkscape:connector-curvature="0" />
    <path
       style="fill:#000080;fill-opacity:1;stroke:none"
       id="path3056"
       d="m 364.08341,40.217691 c 1.98021,-0.119017 3.90755,0.109316 5.85301,0.438744 1.65612,0.1095 3.20799,0.684145 4.81912,1.024792 1.7191,0.477066 3.39912,1.075257 5.11493,1.561432 1.46042,0.654342 2.99318,1.080488 4.47671,1.67022 0.7054,0.233671 1.40872,0.405851 2.10058,0.678446 0,0 -2.24716,1.510575 -2.24716,1.510575 l 0,0 c -0.69471,-0.256711 -1.40484,-0.431793 -2.10185,-0.682083 -1.47348,-0.58656 -2.99795,-1.015498 -4.45281,-1.654152 -1.70908,-0.49769 -3.39004,-1.0842 -5.11139,-1.54216 -1.60178,-0.35593 -3.1574,-0.896885 -4.80586,-1.018892 -1.94105,-0.327722 -3.86961,-0.515929 -5.84298,-0.390198 0,0 2.1977,-1.596724 2.1977,-1.596724 z"
       inkscape:connector-curvature="0" />
    <path
       style="fill:#000080;fill-opacity:1;stroke:none"
       id="path3060"
       d="m 624.38158,130.59322 c -1.82068,0.34069 -3.65142,0.59496 -5.49672,0.7521 -1.88747,0.13843 -3.78084,0.15156 -5.6724,0.16167 -1.57896,0.29512 -3.14634,0.60436 -4.74698,0.76034 -1.79996,0.009 -3.54369,0.45177 -5.31364,0.72257 -1.8398,0.20709 -3.66852,0.27167 -5.48976,0.61395 -1.81375,0.37343 -3.65926,0.51424 -5.5054,0.59546 -1.63179,0.0356 -3.20743,0.52025 -4.82324,0.73603 -1.74248,0.19557 -3.498,0.21228 -5.24931,0.22933 -1.84392,-0.0392 -3.65428,-0.0276 -5.47335,0.28079 -1.81642,0.35112 -3.65941,0.49654 -5.50451,0.57965 -1.981,0.0106 -3.93385,0.0477 -5.89528,0.3335 -2.21033,0.31711 -4.42611,0.44393 -6.62204,0.85544 -1.94373,0.40294 -3.91963,0.56954 -5.89944,0.64536 -1.94105,0.3736 -3.88556,0.65776 -5.85636,0.81399 -1.95591,0.38483 -3.91235,0.73094 -5.89799,0.91574 -1.82584,0.41359 -3.66077,0.74064 -5.52459,0.91739 -1.54764,0.47741 -3.16561,0.64369 -4.72806,1.04082 -1.7589,0.46101 -3.55296,0.70087 -5.31935,1.12778 -1.79696,0.50382 -3.67634,0.47328 -5.49818,0.80289 -1.859,0.33429 -3.69586,0.81946 -5.48046,1.43869 -1.78411,0.62581 -3.63886,1.08411 -5.37899,1.82539 -1.46191,0.52428 -2.90475,1.10306 -4.38219,1.58524 -1.57169,0.54258 -3.23251,0.81937 -4.80179,1.35638 -1.47157,0.53831 -3.00958,0.76178 -4.49811,1.23949 -1.45627,0.29323 -2.80345,0.90629 -4.24765,1.24648 -1.43685,0.53687 -2.85547,1.12647 -4.32226,1.57819 -1.45421,0.72737 -3.02064,1.16128 -4.56133,1.66056 -1.78746,0.41725 -3.53376,0.97892 -5.33686,1.33234 -1.63534,0.20681 -3.29729,0.44516 -4.82491,1.09112 -1.35003,0.47286 -2.67,1.02278 -4.02892,1.47257 -1.35216,0.49246 -2.7844,0.82855 -4.11974,1.3671 -1.35749,0.44023 -2.58738,1.139 -3.965,1.52312 -0.25391,0.0501 -0.50781,0.10014 -0.76172,0.15021 0,0 2.1545,-1.63475 2.1545,-1.63475 l 0,0 c 0.25007,-0.0561 0.50014,-0.11226 0.75021,-0.16838 1.35571,-0.42222 2.60057,-1.10646 3.95367,-1.54008 1.36292,-0.48346 2.75451,-0.89821 4.12467,-1.35994 1.34743,-0.47714 2.68344,-0.98147 4.02151,-1.48199 1.56267,-0.56815 3.20091,-0.83568 4.8449,-1.04688 1.79341,-0.37325 3.54447,-0.91525 5.3203,-1.35931 1.53913,-0.50787 3.09274,-0.96795 4.56351,-1.65922 1.46177,-0.47736 2.88029,-1.07447 4.33702,-1.56744 1.42923,-0.37029 2.79169,-0.94836 4.23776,-1.26091 1.48716,-0.46538 3.03308,-0.68066 4.49391,-1.23821 1.59045,-0.48466 3.22407,-0.83016 4.80301,-1.3615 1.46401,-0.50863 2.92012,-1.03904 4.36616,-1.59418 1.76333,-0.68862 3.59378,-1.19886 5.38531,-1.80901 1.80171,-0.59002 3.63622,-1.09445 5.50794,-1.40601 1.82637,-0.28538 3.6937,-0.31664 5.48675,-0.81742 1.76737,-0.42113 3.56785,-0.653 5.32267,-1.13073 1.57649,-0.36026 3.17756,-0.61424 4.74761,-1.0089 1.86191,-0.19194 3.68924,-0.55265 5.52387,-0.91606 1.98301,-0.19851 3.93341,-0.57135 5.89586,-0.9094 1.97149,-0.16797 3.91077,-0.49816 5.86317,-0.80583 1.97221,-0.0927 3.93892,-0.2719 5.87545,-0.6742 2.19806,-0.39659 4.42114,-0.50911 6.62842,-0.84642 1.9679,-0.27115 3.9332,-0.28495 5.91724,-0.31851 1.83953,-0.0921 3.67434,-0.25607 5.48555,-0.6041 1.82663,-0.28845 3.65216,-0.26572 5.49865,-0.24873 1.74631,-0.021 3.49746,-0.0435 5.23287,-0.26004 1.61306,-0.23454 3.1954,-0.70725 4.83351,-0.71272 1.83965,-0.0904 3.67611,-0.24984 5.483,-0.62419 1.82247,-0.32676 3.66063,-0.36525 5.49454,-0.60858 1.77118,-0.28255 3.52391,-0.68759 5.32588,-0.71397 1.60056,-0.17284 3.16496,-0.5247 4.75845,-0.73646 1.88656,-0.0121 3.77511,-0.0287 5.6569,-0.17769 1.85561,-0.16888 3.68892,-0.46601 5.52947,-0.74665 0,0 -2.19771,1.59673 -2.19771,1.59673 z"
       inkscape:connector-curvature="0" />
    <path
       style="fill:#000080;fill-opacity:1;stroke:none"
       id="path3070"
       d="m 460.46849,161.90957 c 1.52041,-1.31019 2.9616,-2.70653 4.48645,-4.01182 1.54061,-1.20808 2.82433,-2.68613 4.19347,-4.07365 1.10159,-1.06087 2.02274,-2.26086 2.95922,-3.4622 0.14718,-0.20367 0.29437,-0.40734 0.44156,-0.611 0,0 2.48162,-1.07706 2.48162,-1.07706 l 0,0 c -0.14544,0.20833 -0.29087,0.41666 -0.43631,0.62498 -0.96424,1.18402 -1.82654,2.44359 -2.95088,3.49252 -1.39781,1.3644 -2.64,2.89012 -4.19151,4.09518 -1.52455,1.29508 -2.95758,2.68613 -4.47744,3.98496 0,0 -2.50618,1.03809 -2.50618,1.03809 z"
       inkscape:connector-curvature="0" />
    <path
       style="fill:#000080;fill-opacity:1;stroke:none"
       id="path3072"
       d="m 460.91371,161.984 c 2.03299,-0.70024 4.12945,-1.14819 6.25619,-1.4376 1.69068,-0.18697 3.47997,0.0222 5.10272,0.53621 1.38046,0.42654 2.6967,1.02576 4.00618,1.63473 1.64012,0.65348 3.28234,1.296 5.00286,1.70623 0,0 -2.21894,1.53214 -2.21894,1.53214 l 0,0 c -1.72785,-0.43386 -3.38862,-1.07673 -5.03796,-1.74396 -1.30847,-0.58733 -2.60873,-1.19784 -3.98713,-1.60325 -1.61544,-0.46137 -3.35046,-0.67539 -5.02048,-0.4518 -2.13205,0.3072 -4.22,0.79656 -6.26874,1.46674 0,0 2.1653,-1.63944 2.1653,-1.63944 z"
       inkscape:connector-curvature="0" />
    <text
       xml:space="preserve"
       style="font-size:11px;font-style:normal;font-variant:normal;font-weight:normal;font-stretch:normal;text-align:center;line-height:125%;letter-spacing:0px;word-spacing:0px;text-anchor:middle;fill:#000000;fill-opacity:1;stroke:none;font-family:Arial;-inkscape-font-specification:Arial"
       x="622.36682"
       y="54.744747"
       id="text3014"
       sodipodi:linespacing="125%"><tspan
         sodipodi:role="line"
         id="tspan3016"
         x="622.36682"
         y="54.744747">Section 2 on selecting the input device</tspan></text>
    <text
       xml:space="preserve"
       style="font-size:11px;font-style:normal;font-variant:normal;font-weight:normal;font-stretch:normal;text-align:center;line-height:125%;letter-spacing:0px;word-spacing:0px;text-anchor:middle;fill:#000000;fill-opacity:1;stroke:none;font-family:Arial;-inkscape-font-specification:Arial"
       x="635.16412"
       y="152.77695"
       id="text3014-1"
       sodipodi:linespacing="125%"><tspan
         sodipodi:role="line"
         id="tspan3016-7"
         x="635.16412"
         y="152.77695">Section 3 on modelling data and updating it</tspan></text>
    <text
       xml:space="preserve"
       style="font-size:11px;font-style:normal;font-variant:normal;font-weight:normal;font-stretch:normal;text-align:center;line-height:125%;letter-spacing:0px;word-spacing:0px;text-anchor:middle;fill:#000000;fill-opacity:1;stroke:none;font-family:Arial;-inkscape-font-specification:Arial"
       x="623.26593"
       y="167.42087"
       id="text3014-4"
       sodipodi:linespacing="125%"><tspan
         sodipodi:role="line"
         id="tspan3016-0"
         x="623.26593"
         y="167.42087">Section 4.1 on rendering gameplay</tspan></text>
    <text
       xml:space="preserve"
       style="font-size:11px;font-style:normal;font-variant:normal;font-weight:normal;font-stretch:normal;text-align:center;line-height:125%;letter-spacing:0px;word-spacing:0px;text-anchor:middle;fill:#000000;fill-opacity:1;stroke:none;font-family:Arial;-inkscape-font-specification:Arial"
       x="168.38904"
       y="409.96088"
       id="text3014-9"
       sodipodi:linespacing="125%"><tspan
         sodipodi:role="line"
         id="tspan3016-4"
         x="168.38904"
         y="409.96088">Section 4.2 on animating the score board</tspan></text>
    <text
       xml:space="preserve"
       style="font-size:11px;font-style:normal;font-variant:normal;font-weight:normal;font-stretch:normal;text-align:center;line-height:125%;letter-spacing:0px;word-spacing:0px;text-anchor:middle;fill:#000000;fill-opacity:1;stroke:none;font-family:Arial;-inkscape-font-specification:Arial"
       x="160.88445"
       y="425.52005"
       id="text3014-4-8"
       sodipodi:linespacing="125%"><tspan
         sodipodi:role="line"
         id="tspan3016-0-8"
         x="160.88445"
         y="425.52005">Section 5 on safe IO</tspan></text>
    <path
       style="fill:#000080;fill-opacity:1;stroke:none"
       id="path3080"
       d="m 206.09064,388.5221 c 1.71522,-0.78901 3.60424,-1.00224 5.3837,-1.56731 1.55056,-0.6646 3.26022,-0.65836 4.86208,-1.08609 1.52498,-0.49727 3.11368,-0.67384 4.70537,-0.78198 1.52344,-0.41357 3.0621,-0.70125 4.63238,-0.85454 1.70701,-0.0955 3.38378,-0.0752 5.05807,-0.43921 1.61152,-0.38136 3.26389,-0.49486 4.91274,-0.56828 1.79661,-0.35765 3.59744,-0.65479 5.42241,-0.81792 1.85971,0.003 3.66154,-0.4486 5.49015,-0.72409 1.75786,-0.20928 3.50205,-0.22266 5.22943,-0.62228 1.60859,-0.39797 3.26235,-0.51041 4.91155,-0.58366 1.79568,-0.35713 3.59565,-0.65338 5.41962,-0.81605 1.85966,0.004 3.66146,-0.44828 5.49001,-0.72373 1.82479,-0.25327 3.66832,-0.29945 5.50756,-0.33027 1.8226,-0.30996 3.64083,-0.61191 5.48349,-0.77436 1.83027,-0.1354 3.66655,-0.14393 5.50082,-0.1526 1.84222,-0.0154 3.65013,-0.46479 5.47902,-0.67828 1.82813,-0.18885 3.66726,-0.21362 5.50332,-0.232 1.83091,-0.0108 3.66186,-0.006 5.49279,-0.004 1.83046,0.002 3.66092,0.003 5.49138,0.003 1.83048,3.1e-4 3.66096,2.8e-4 5.49144,2.7e-4 1.83049,-2e-5 3.66098,-3e-5 5.49147,-4e-5 1.83049,0 3.66099,0 5.49148,0 1.83049,0 3.66098,0 5.49147,0 1.62821,0.0154 3.2059,-0.47309 4.81641,-0.68552 1.74349,-0.19439 3.49978,-0.21239 5.252,-0.23 1.82898,-0.0107 3.65802,-0.006 5.48702,-0.003 1.2216,10e-4 0.61083,7.2e-4 1.83231,0.002 0,0 -2.90923,2.11327 -2.90923,2.11327 l 0,0 c -1.22152,-0.001 -0.61073,-5.3e-4 -1.83235,-0.002 -1.82832,-0.002 -3.6567,-0.007 -5.48498,0.008 -1.74563,0.023 -3.49609,0.0491 -5.23025,0.2707 -1.61071,0.2366 -3.20026,0.70578 -4.84002,0.641 -1.83049,0 -3.66098,0 -5.49147,0 -1.83049,0 -3.66098,0 -5.49147,1e-5 -1.83049,10e-6 -3.66098,2e-5 -5.49147,3e-5 -1.8305,10e-6 -3.661,4e-5 -5.4915,-3.4e-4 -1.83052,-5e-4 -3.66105,-0.001 -5.49157,-0.004 -1.83005,-0.002 -3.66014,-0.007 -5.49015,0.007 -1.82867,0.0231 -3.66063,0.0561 -5.47963,0.26336 -1.83247,0.23041 -3.65024,0.67102 -5.50392,0.64525 -1.82828,0.0118 -3.65892,0.0253 -5.48208,0.17766 -1.84492,0.18002 -3.66159,0.52478 -5.49946,0.75309 -1.83031,0.0376 -3.66475,0.096 -5.47809,0.36875 -1.82932,0.29018 -3.64202,0.68967 -5.50324,0.70692 -1.82564,0.18123 -3.62082,0.52375 -5.4319,0.80497 -1.64137,0.0877 -3.28129,0.23366 -4.88052,0.6359 -1.72956,0.36137 -3.48913,0.33844 -5.23495,0.59794 -1.82935,0.29022 -3.64209,0.68974 -5.50334,0.70733 -1.8266,0.1817 -3.62263,0.52514 -5.43466,0.80673 -1.64194,0.0876 -3.28153,0.23411 -4.88535,0.61671 -1.67988,0.32351 -3.37578,0.2591 -5.07582,0.40883 -1.56854,0.17797 -3.09329,0.53236 -4.63782,0.84479 -1.58456,0.1286 -3.15209,0.35764 -4.67511,0.83158 -1.61927,0.34383 -3.28642,0.47862 -4.84268,1.09592 -1.81257,0.50425 -3.66507,0.86127 -5.42352,1.55599 0,0 2.88706,-2.18593 2.88706,-2.18593 z"
       inkscape:connector-curvature="0" />
    <path
       style="fill:#000080;fill-opacity:1;stroke:none"
       id="path3082"
       d="m 335.20003,370.63146 c 1.92208,0.58413 3.75106,1.41603 5.68957,1.94877 1.8286,0.57433 3.63839,1.21344 5.48338,1.73409 1.62055,0.40879 3.15858,1.01364 4.81414,1.29438 0,0 -2.95186,2.0658 -2.95186,2.0658 l 0,0 c -1.65282,-0.31104 -3.20036,-0.92405 -4.82745,-1.33034 -1.83877,-0.53967 -3.6523,-1.16293 -5.48169,-1.7334 -1.9424,-0.5666 -3.79018,-1.39685 -5.73274,-1.96502 0,0 3.00665,-2.01428 3.00665,-2.01428 z"
       inkscape:connector-curvature="0" />
    <path
       style="fill:#000080;fill-opacity:1;stroke:none"
       id="path3084"
       d="m 329.98411,386.34236 c 1.32967,-1.46256 2.80184,-2.82909 4.43173,-3.95162 1.60856,-1.21614 3.39037,-2.09568 5.15705,-3.08649 0.82367,-0.46194 -3.27833,1.87635 -2.46451,1.39728 3.59909,-2.11866 2.44622,-1.6095 4.37823,-2.40614 1.21369,-0.90471 2.69091,-1.08684 4.0958,-1.50232 1.66522,-0.47615 3.36984,-0.668 5.03105,-1.15285 0,0 -2.85629,2.19894 -2.85629,2.19894 l 0,0 c -1.66175,0.46247 -3.38007,0.63361 -5.02948,1.15069 -1.41813,0.38308 -2.82536,0.72006 -4.07127,1.5464 -0.21548,0.10062 -0.84814,0.42784 -0.64644,0.30186 0.80666,-0.50383 3.28885,-1.91209 2.46464,-1.4375 -1.24108,0.71463 -2.46092,1.46662 -3.71531,2.15765 -0.81146,0.44703 1.58567,-0.95873 2.38601,-1.42535 0.23348,-0.13613 -0.46233,0.28055 -0.68505,0.43364 -0.23821,0.16374 -0.46453,0.34413 -0.69679,0.51619 -1.6583,1.04726 -3.0867,2.42779 -4.45308,3.8262 0,0 -3.32629,1.43342 -3.32629,1.43342 z"
       inkscape:connector-curvature="0" />
  </g>
</svg>
