<?xml version="1.0" encoding="UTF-8" standalone="no"?>
<!-- Created with Inkscape (http://www.inkscape.org/) -->

<svg
   xmlns:dc="http://purl.org/dc/elements/1.1/"
   xmlns:cc="http://creativecommons.org/ns#"
   xmlns:rdf="http://www.w3.org/1999/02/22-rdf-syntax-ns#"
   xmlns:svg="http://www.w3.org/2000/svg"
   xmlns="http://www.w3.org/2000/svg"
   xmlns:xlink="http://www.w3.org/1999/xlink"
   xmlns:sodipodi="http://sodipodi.sourceforge.net/DTD/sodipodi-0.dtd"
   xmlns:inkscape="http://www.inkscape.org/namespaces/inkscape"
   width="210mm"
   height="297mm"
   id="svg5633"
   version="1.1"
   inkscape:version="0.48.4 r9939"
   sodipodi:docname="New document 10">
  <sodipodi:namedview
     inkscape:document-units="mm"
     id="base"
     pagecolor="#ffffff"
     bordercolor="#666666"
     borderopacity="1.0"
     inkscape:pageopacity="0.0"
     inkscape:pageshadow="2"
     inkscape:zoom="2.365291"
     inkscape:cx="372.04724"
     inkscape:cy="918.78499"
     inkscape:current-layer="layer1"
     showgrid="false"
     inkscape:window-width="1920"
     inkscape:window-height="1018"
     inkscape:window-x="1432"
     inkscape:window-y="-8"
     inkscape:window-maximized="1" />
  <defs
     id="defs3" />
  <metadata
     id="metadata4">
    <rdf:RDF>
      <cc:Work
         rdf:about="">
        <dc:format>image/svg+xml</dc:format>
        <dc:type
           rdf:resource="http://purl.org/dc/dcmitype/StillImage" />
        <dc:title></dc:title>
      </cc:Work>
    </rdf:RDF>
  </metadata>
  <g
     id="layer1"
     inkscape:groupmode="layer"
     inkscape:label="Layer 1">
    <image
       y="43.063553"
       x="41.115986"
       id="image5655"
       xlink:href="file:///C:/Users/johann/Documents/FSharp%20Deep%20Dives/11_03.png"
       height="460.52304"
       width="171.44035" />
    <flowRoot
       xml:space="preserve"
       id="flowRoot5658"
       style="font-size:11px;font-style:normal;font-variant:normal;font-weight:normal;font-stretch:normal;text-align:start;line-height:125%;letter-spacing:0px;word-spacing:0px;text-anchor:start;fill:#002255;fill-opacity:1;stroke:none;font-family:Arial;-inkscape-font-specification:Arial"
       transform="translate(1.2683429,7.6100572)"><flowRegion
         id="flowRegion5660"><rect
           id="rect5662"
           width="121.52542"
           height="13.070888"
           x="248.21057"
           y="139.30185"
           style="text-align:start;text-anchor:start;fill:#002255" /></flowRegion><flowPara
         id="flowPara5664">Main F# code as a libary</flowPara></flowRoot>    <flowRoot
       transform="translate(1.7904595,141.47153)"
       xml:space="preserve"
       id="flowRoot5658-2"
       style="font-size:11px;font-style:normal;font-variant:normal;font-weight:normal;font-stretch:normal;text-align:start;line-height:125%;letter-spacing:0px;word-spacing:0px;text-anchor:start;fill:#002255;fill-opacity:1;stroke:none;font-family:Arial;-inkscape-font-specification:Arial"><flowRegion
         id="flowRegion5660-9"><rect
           id="rect5662-9"
           width="133.78607"
           height="13.493669"
           x="248.21057"
           y="139.30185"
           style="text-align:start;text-anchor:start;fill:#002255" /></flowRegion><flowPara
         id="flowPara5664-8">Thin top-level C# wrapper</flowPara></flowRoot>    <flowRoot
       transform="translate(3.9043646,245.47564)"
       xml:space="preserve"
       id="flowRoot5658-3"
       style="font-size:11px;font-style:normal;font-variant:normal;font-weight:normal;font-stretch:normal;text-align:start;line-height:125%;letter-spacing:0px;word-spacing:0px;text-anchor:start;fill:#002255;fill-opacity:1;stroke:none;font-family:Arial;-inkscape-font-specification:Arial"><flowRegion
         id="flowRegion5660-8"><rect
           id="rect5662-6"
           width="122.37098"
           height="43.511116"
           x="248.21057"
           y="139.30185"
           style="text-align:start;text-anchor:start;fill:#002255" /></flowRegion><flowPara
         id="flowPara5664-9">Art assets - Sprites,</flowPara><flowPara
         id="flowPara5718">textures, sound effects,</flowPara><flowPara
         id="flowPara5720">music...</flowPara></flowRoot>    <path
       style="fill:#0066ff;fill-opacity:1;stroke:none"
       id="path5706"
       d="m 226.2361,324.86347 c 1.37689,0.13299 2.7367,0.41352 4.0254,0.91901 0.86353,0.25969 1.64199,0.69887 2.44361,1.09773 0.61591,0.34253 1.12249,0.8224 1.6624,1.26477 0.55003,0.44269 1.15736,0.79623 1.60336,1.35247 0.38359,0.59502 0.66355,1.23761 0.92627,1.89272 0.20055,0.73441 0.48584,1.44171 0.67124,2.1805 0.17154,0.7944 0.1912,1.6095 0.20818,2.41877 0.0109,0.84494 0.007,1.68997 0.005,2.53495 -0.002,0.84617 -0.002,1.69233 -0.003,2.5385 -0.0677,0.72184 -0.20107,1.44393 -0.43215,2.13191 -0.19917,0.65685 -0.35179,1.32307 -0.55054,1.98081 -0.15614,0.64997 -0.37609,1.28689 -0.65892,1.89254 -0.24075,0.6221 -0.47415,1.24744 -0.71483,1.87032 -0.28592,0.66835 -0.60415,1.31527 -0.8707,1.99226 -0.31835,0.6142 -0.41633,1.30024 -0.62352,1.95252 -0.15334,0.66056 -0.40577,1.29066 -0.585,1.94332 -0.24462,0.64775 -0.4456,1.29425 -0.54602,1.98041 -0.17828,0.70518 -0.318,1.41757 -0.47003,2.12871 -0.2446,0.78427 -0.30887,1.6031 -0.4518,2.40677 -0.20443,0.71659 -0.32369,1.44646 -0.38683,2.18763 -0.0675,0.83144 -0.019,1.66668 -0.0947,2.4968 -0.14633,0.8387 -0.26398,1.67953 -0.32673,2.52864 -0.0511,0.84075 -0.0529,1.6834 -0.0556,2.52537 -8.9e-4,0.84536 7.9e-4,1.69073 0.002,2.53609 0.0274,0.81908 -0.0526,1.64489 0.0404,2.46015 0.1467,0.73168 0.25343,1.46764 0.4329,2.19218 0.15862,0.84071 0.41089,1.6583 0.58392,2.49574 0.27107,0.68699 0.38153,1.41806 0.582,2.12345 0.20656,0.71184 0.41074,1.42493 0.60014,2.1419 0.15424,0.74069 0.4232,1.45312 0.68211,2.16264 0.31056,0.78809 0.69013,1.53901 1.10801,2.2739 0.32005,0.61503 0.6473,1.22503 0.97746,1.83509 0.32365,0.5678 0.53786,1.17785 0.79039,1.77704 0.23916,0.58707 0.46507,1.18464 0.76347,1.74499 0.30274,0.53022 0.64065,1.04011 0.95644,1.5647 0.24961,0.57326 0.62076,1.07475 0.98311,1.5799 0.38656,0.63157 0.87583,1.19937 1.39836,1.72239 0.62896,0.59395 1.25031,1.22006 1.99576,1.66705 0.54963,0.37873 1.13441,0.73856 1.75737,0.98491 0.0759,0.0347 0.15185,0.0693 0.22777,0.10397 0,0 -3.50605,2.32303 -3.50605,2.32303 l 0,0 c -0.0722,-0.0336 -0.14448,-0.0671 -0.21672,-0.1007 -0.62368,-0.29452 -1.227,-0.64274 -1.78805,-1.04382 -0.74413,-0.50175 -1.39769,-1.12683 -2.04509,-1.7456 -0.53407,-0.54186 -1.03329,-1.1296 -1.43677,-1.77563 -0.37214,-0.51181 -0.7477,-1.02607 -1.00309,-1.60849 -0.32048,-0.53032 -0.66201,-1.04672 -0.96728,-1.58432 -0.30402,-0.57088 -0.53997,-1.17716 -0.7805,-1.77661 -0.25281,-0.58459 -0.44828,-1.1896 -0.77156,-1.74366 -0.32772,-0.60836 -0.652,-1.21697 -0.9671,-1.83156 -0.42563,-0.75666 -0.81402,-1.5287 -1.14243,-2.33368 -0.26374,-0.72148 -0.54814,-1.44373 -0.70058,-2.19818 -0.18297,-0.71389 -0.40063,-1.41771 -0.59801,-2.12723 -0.2184,-0.71284 -0.29998,-1.46618 -0.59339,-2.16024 -0.16157,-0.83389 -0.4249,-1.64094 -0.57624,-2.47688 -0.18795,-0.73868 -0.30642,-1.48477 -0.4572,-2.2319 -0.12858,-0.82942 -0.0329,-1.67509 -0.0625,-2.51206 -7.3e-4,-0.84577 -0.002,-1.69155 -0.002,-2.53733 10e-4,-0.85003 10e-4,-1.70056 0.0434,-2.54978 0.0527,-0.85578 0.14574,-1.70748 0.31687,-2.54861 0.1267,-0.8188 0.0325,-1.65297 0.10085,-2.47842 0.0493,-0.75695 0.12922,-1.51339 0.35932,-2.24034 0.21101,-0.78966 0.17653,-1.63392 0.44916,-2.41495 0.1872,-0.68894 0.22634,-1.41446 0.4891,-2.08662 0.0766,-0.69891 0.19764,-1.3899 0.52267,-2.02246 0.148,-0.67445 0.43921,-1.29269 0.57088,-1.97039 0.21995,-0.66271 0.32378,-1.35063 0.60549,-1.9926 0.1642,-0.32692 0.24301,-0.66877 0.39593,-1.00049 0.0504,-0.10925 0.11097,-0.21347 0.16646,-0.32021 0.0603,-0.10054 0.13064,-0.19574 0.18101,-0.30163 0.055,-0.11566 0.0892,-0.24013 0.13377,-0.3602 0.27091,-0.61526 0.49083,-1.25009 0.70317,-1.88618 0.27632,-0.59114 0.55876,-1.18918 0.68909,-1.83281 0.18028,-0.6706 0.40248,-1.32046 0.53918,-2.00274 0.23832,-0.65402 0.38502,-1.32028 0.50139,-2.00883 3.1e-4,-0.84638 8.2e-4,-1.69276 0.003,-2.53914 0.002,-0.84233 0.006,-1.6847 -0.002,-2.52701 -0.0122,-0.78036 -0.0221,-1.56622 -0.16929,-2.33536 -0.16855,-0.72391 -0.45837,-1.40862 -0.64124,-2.12849 -0.24568,-0.61512 -0.5086,-1.21874 -0.86569,-1.77865 -0.44134,-0.5199 -1.05162,-0.84306 -1.56419,-1.28586 -0.50626,-0.43491 -1.01125,-0.87084 -1.60395,-1.18819 -0.7816,-0.4042 -1.56738,-0.79128 -2.40546,-1.06839 -1.28033,-0.46298 -2.61503,-0.73323 -3.97449,-0.82709 0,0 3.41409,-2.42322 3.41409,-2.42322 z"
       inkscape:connector-curvature="0" />
    <path
       style="fill:#0066ff;fill-opacity:1;stroke:none"
       id="path5708"
       d="m 238.85018,404.69308 c -1.27284,0.11 -2.52568,0.38873 -3.73884,0.78164 0.94765,-0.38555 -2.07406,1.11515 -1.08023,0.53158 1.09437,-0.64261 4.38901,-2.54955 3.30858,-1.88377 -0.4537,0.27957 -9.06579,5.20321 -0.54109,0.32514 -0.54051,0.37549 -0.9921,0.85899 -1.46152,1.31692 -0.45478,0.4415 -0.91076,0.88204 -1.35557,1.33362 -0.5483,0.48199 -0.91187,1.11544 -1.29534,1.72578 -0.44691,0.63585 -0.73613,1.35718 -1.03698,2.06792 -0.29067,0.6347 -0.51111,1.29897 -0.74917,1.95502 -0.14922,0.67338 -0.36928,1.32817 -0.53307,1.99787 -0.15384,0.74181 -0.14154,1.49871 -0.29399,2.24037 -0.18663,0.72901 -0.25601,1.47674 -0.2974,2.22565 -0.0347,0.83289 -0.0328,1.66673 -0.0332,2.50017 5.9e-4,0.84639 0.002,1.69277 0.003,2.53916 5.6e-4,0.8458 6.2e-4,1.6916 6.7e-4,2.5374 0.002,0.88617 -10e-4,1.77233 -0.003,2.6585 -2.2e-4,0.93691 0.001,1.87381 0.002,2.81072 -0.008,0.85084 -0.0275,1.69436 0.10515,2.53633 0.18577,0.81538 0.182,1.65828 0.32519,2.47814 0.19781,0.73197 0.30517,1.47858 0.36547,2.2329 0.14504,0.86438 0.30571,1.72612 0.49586,2.58183 0.15499,0.95012 0.42271,1.87494 0.61065,2.8181 0.27015,0.81674 0.37272,1.6741 0.58412,2.50346 0.16202,0.6824 0.38194,1.34173 0.59578,2.00844 0.17742,0.81984 0.51387,1.58843 0.75834,2.38717 0.29742,0.93048 0.61153,1.8565 0.88564,2.79423 0.27988,0.86076 0.58769,1.71284 0.84931,2.57935 0.20375,0.81192 0.42588,1.61846 0.72871,2.39898 0.30994,0.71943 0.50234,1.47894 0.76241,2.21465 0.25467,0.73175 0.54263,1.44937 0.73303,2.2015 0.26771,0.8165 0.44191,1.65681 0.67294,2.48345 0.266,0.81158 0.26857,1.67075 0.418,2.50233 0.1764,0.68876 0.25852,1.39175 0.46319,2.07266 0.1535,0.68149 0.32535,1.3518 0.51517,2.02423 0.10908,0.69722 0.34835,1.36031 0.50479,2.0465 0.13949,0.78118 0.21171,1.58031 0.15699,2.3727 -0.0677,0.69279 -0.31821,1.33524 -0.59095,1.96842 -0.29421,0.57356 -0.51336,1.18299 -0.74404,1.78451 -0.27821,0.74753 -0.5977,1.47704 -0.98296,2.17541 -0.37412,0.69304 -0.82556,1.33786 -1.2463,2.00211 -0.36682,0.58986 -0.7916,1.13886 -1.25468,1.65555 -0.4072,0.44768 -0.83096,0.8808 -1.26433,1.3032 -0.42277,0.4214 -0.84047,0.84809 -1.26836,1.26433 -0.46358,0.49657 -1.03224,0.8765 -1.56726,1.29018 -0.46997,0.43044 -0.97498,0.80566 -1.49381,1.17313 -2.36796,1.67286 -3.37106,2.35417 -5.73086,2.45824 -0.4452,0.1116 -0.24366,0.0231 -0.60955,0.25383 0,0 3.2927,-2.60565 3.2927,-2.60565 l 0,0 c 0.44221,-0.12187 0.2116,-0.0756 0.69297,-0.13307 2.06564,-0.16515 3.95605,-1.53863 -1.55841,1.55225 0.54727,-0.32409 1.0431,-0.69983 1.51746,-1.12031 0.48633,-0.46838 1.07842,-0.79524 1.58217,-1.24519 0.38101,-0.45897 0.8442,-0.84781 1.26829,-1.26447 0.38592,-0.46338 0.85608,-0.85172 1.27335,-1.28569 0.42328,-0.53754 0.92164,-1.01153 1.28809,-1.59675 0.38505,-0.68444 0.87409,-1.29955 1.25169,-1.98805 0.37537,-0.68664 0.73924,-1.37116 1.00735,-2.11022 0.19984,-0.62639 0.47005,-1.22931 0.71881,-1.83578 0.33708,-0.55478 0.53322,-1.20222 0.659,-1.83541 0.12863,-0.74074 0.004,-1.50822 -0.0937,-2.24769 -0.14498,-0.68218 -0.40041,-1.33268 -0.49484,-2.02589 -0.18404,-0.67111 -0.3766,-1.33205 -0.51083,-2.01541 -0.21326,-0.69516 -0.30638,-1.40668 -0.48051,-2.11248 -0.1692,-0.81767 -0.1376,-1.67126 -0.39724,-2.47492 -0.23272,-0.83088 -0.4069,-1.67501 -0.68201,-2.49395 -0.17576,-0.74222 -0.4681,-1.44175 -0.71454,-2.16184 -0.26555,-0.72988 -0.44112,-1.49223 -0.75714,-2.20592 -0.30507,-0.79172 -0.54122,-1.60633 -0.73998,-2.43134 -0.25334,-0.87039 -0.56784,-1.72209 -0.84926,-2.58364 -0.26398,-0.93852 -0.58162,-1.86199 -0.88224,-2.7891 -0.23889,-0.79808 -0.5918,-1.55917 -0.76644,-2.37703 -0.20989,-0.67536 -0.44589,-1.33635 -0.60164,-2.02803 -0.22751,-0.8347 -0.29749,-1.71055 -0.59232,-2.53127 -0.17565,-0.94251 -0.45396,-1.86081 -0.60053,-2.80917 -0.19808,-0.87374 -0.36525,-1.75135 -0.53321,-2.63155 -0.0506,-0.73975 -0.14162,-1.47428 -0.34451,-2.18994 -0.16736,-0.81964 -0.13447,-1.67039 -0.32605,-2.48933 -0.14868,-0.86338 -0.16228,-1.72187 -0.13561,-2.59772 7.5e-4,-0.93758 0.002,-1.87516 0.002,-2.81274 -10e-4,-0.88521 -0.004,-1.77041 -0.003,-2.65563 -3e-5,-0.84572 -6e-5,-1.69144 -5.3e-4,-2.53717 -5.6e-4,-0.84647 -0.002,-1.69295 -0.003,-2.53943 -3.6e-4,-0.83916 -0.003,-1.67856 0.0226,-2.51744 0.0319,-0.76783 0.0782,-1.53893 0.26151,-2.28836 0.1801,-0.74053 0.19378,-1.48483 0.29447,-2.23936 0.13769,-0.69178 0.40663,-1.33935 0.51288,-2.03738 0.2097,-0.6786 0.48625,-1.33474 0.73234,-1.99981 0.3588,-0.69642 0.56005,-1.47538 1.01116,-2.12874 0.43225,-0.59337 0.72593,-1.28426 1.24985,-1.81313 0.48954,-0.40376 0.90061,-0.89897 1.35717,-1.33858 0.51003,-0.42218 0.91589,-0.95488 1.44564,-1.34866 1.27699,-0.76136 2.61859,-1.42353 3.83096,-2.28406 1.03792,-0.7367 -4.42783,2.5118 -3.30565,1.9112 1.6507,-0.88347 3.22402,-2.03833 4.99728,-2.71271 1.23511,-0.36521 2.51064,-0.58408 3.79046,-0.72117 0,0 -3.35963,2.49818 -3.35963,2.49818 z"
       inkscape:connector-curvature="0" />
    <path
       style="fill:#0066ff;fill-opacity:1;stroke:none"
       id="path5710"
       d="m 236.54571,247.42901 c 0.93045,0.91186 1.9431,1.72114 2.88872,2.61718 0.57314,0.58105 1.11746,1.16336 1.4938,1.89292 0.43514,0.62705 0.64188,1.33277 0.75965,2.07685 0.0988,0.82455 0.0955,1.65673 0.098,2.48586 -5.3e-4,0.84687 -0.004,1.69374 -0.006,2.54061 -0.004,0.82179 0.0406,1.64058 -0.10148,2.45278 -0.1149,0.70591 -0.26143,1.39685 -0.45921,2.08377 -0.20196,0.61515 -0.50209,1.18944 -0.7732,1.77498 -0.27247,0.56827 -0.5755,1.12169 -0.84701,1.69035 -0.33052,0.55574 -0.52605,1.16791 -0.77619,1.75985 -0.22925,0.63998 -0.3741,1.30478 -0.56873,1.95685 -0.16987,0.65842 -0.38766,1.30355 -0.59207,1.9522 -0.29019,0.64676 -0.41126,1.33366 -0.48028,2.03345 -0.0606,0.82232 -0.0578,1.64758 -0.0591,2.47162 -0.0492,0.78514 0.0229,1.54346 0.17836,2.31045 0.23969,0.63026 0.45052,1.2762 0.77581,1.86855 0.3373,0.56934 0.71279,1.11498 1.06035,1.67995 0.34072,0.48863 0.77026,0.89825 1.15858,1.34595 0.36458,0.31348 0.75895,0.60252 1.20083,0.79856 0,0 -3.50758,2.30921 -3.50758,2.30921 l 0,0 c -0.46601,-0.25374 -0.91144,-0.56091 -1.28884,-0.93536 -0.4115,-0.45854 -0.84339,-0.89852 -1.19375,-1.40842 -0.35159,-0.57054 -0.72924,-1.12323 -1.06733,-1.70046 -0.34474,-0.63031 -0.57675,-1.31056 -0.83735,-1.9787 -0.16172,-0.7937 -0.2769,-1.57283 -0.21239,-2.38785 -1.4e-4,-0.83406 -0.004,-1.66881 0.0407,-2.50196 0.0528,-0.72668 0.12726,-1.45993 0.42555,-2.1341 0.26859,-0.60778 0.39596,-1.29346 0.60821,-1.92089 0.17761,-0.67133 0.39406,-1.32422 0.54554,-2.00225 0.24521,-0.59463 0.41587,-1.22267 0.77493,-1.7624 0.22304,-0.58883 0.54685,-1.13744 0.84834,-1.68767 0.22344,-0.59535 0.55067,-1.14125 0.79738,-1.72772 0.18029,-0.68491 0.39777,-1.34723 0.47384,-2.05666 0.17535,-0.78866 0.15714,-1.57611 0.1427,-2.38269 0.002,-0.84636 0.005,-1.69272 0.006,-2.53909 -6.7e-4,-0.81044 0.005,-1.62312 -0.0734,-2.43064 -0.0951,-0.70599 -0.27881,-1.36422 -0.69382,-1.95648 -0.349,-0.6882 -0.88684,-1.22306 -1.41268,-1.77961 -0.92649,-0.90539 -1.9294,-1.71396 -2.87952,-2.59453 0,0 3.55217,-2.21446 3.55217,-2.21446 z"
       inkscape:connector-curvature="0" />
    <path
       style="fill:#0066ff;fill-opacity:1;stroke:none"
       id="path5712"
       d="m 240.5329,285.4205 c -0.75607,1.08261 -1.51291,2.1715 -2.16803,3.31917 -0.42187,0.76235 -0.53167,1.60881 -0.58335,2.4631 -0.0304,0.83584 -0.0176,1.6725 -0.0124,2.50867 0.0321,0.81887 -0.0461,1.64469 0.048,2.45965 0.10004,0.61827 0.4176,1.17453 0.71723,1.71627 0.32415,0.4927 0.75369,0.89323 1.13904,1.33416 0.34891,0.55589 0.75295,1.06445 1.16723,1.57096 0.40387,0.54708 0.74905,1.12668 1.08683,1.71623 0.36948,0.50142 0.71306,1.03293 0.98001,1.59683 0.30549,0.5498 0.61404,1.10366 0.86259,1.68232 0.28783,0.56008 0.59646,1.11269 0.84454,1.69204 0.38963,0.68313 0.50171,1.45779 0.71397,2.20038 0.26116,0.72239 0.37102,1.47769 0.43491,2.23903 0.0379,0.7081 -0.24903,1.32929 -0.54771,1.94988 -0.29885,0.58175 -0.62178,1.14885 -0.94831,1.71558 -0.32655,0.72316 -0.65373,1.44128 -1.04309,2.13323 -0.39046,0.60355 -0.88585,1.1276 -1.39111,1.6351 -0.41062,0.47437 -0.89792,0.84723 -1.40265,1.21194 -12.83074,7.35785 8.39417,-4.84291 -4.40677,2.5325 0,0 3.26844,-2.63754 3.26844,-2.63754 l 0,0 c -11.16776,6.47317 8.38067,-4.85346 -2.77444,1.63252 0.53198,-0.31455 1.01132,-0.6755 1.44281,-1.11696 0.45851,-0.53543 1.00793,-0.98704 1.43268,-1.55579 0.41522,-0.67363 0.77022,-1.37587 1.04635,-2.11835 0.29813,-0.58507 0.67775,-1.11991 0.94001,-1.72207 0.34607,-0.50967 0.59235,-1.11586 0.66331,-1.72802 -0.0518,-0.73404 -0.14068,-1.46489 -0.39555,-2.16065 -0.21874,-0.72391 -0.29643,-1.49284 -0.69483,-2.15654 -0.24217,-0.58157 -0.55897,-1.13067 -0.84434,-1.69163 -0.24064,-0.57633 -0.55526,-1.12183 -0.85528,-1.6685 -0.25751,-0.55628 -0.60823,-1.06896 -0.96282,-1.5671 -0.32554,-0.56919 -0.65532,-1.1306 -1.04848,-1.65656 -0.41436,-0.49991 -0.80852,-1.00993 -1.16303,-1.55503 -0.41334,-0.45688 -0.84939,-0.89388 -1.18533,-1.41472 -0.32426,-0.58624 -0.6615,-1.19053 -0.78682,-1.85468 -0.12935,-0.8286 -0.0351,-1.6737 -0.0694,-2.50994 -0.005,-0.84322 -0.0175,-1.68667 10e-4,-2.52979 0.0372,-0.90304 0.11429,-1.80975 0.51185,-2.63779 0.61571,-1.17127 1.40366,-2.2518 2.15363,-3.33913 0,0 3.82905,-1.68877 3.82905,-1.68877 z"
       inkscape:connector-curvature="0" />
    <path
       style="fill:#0066ff;fill-opacity:1;stroke:none"
       id="path5714"
       d="m 233.41471,95.928761 c 1.23049,0.610771 2.49169,1.150075 3.73923,1.723409 0.79048,0.313268 1.54195,0.726564 2.27884,1.149959 0.68303,0.384131 1.35507,0.776867 2.07421,1.095091 0.6713,0.37602 1.3163,0.78865 1.96668,1.19747 0.56152,0.42738 1.07059,0.91576 1.55753,1.42576 0.52723,0.41465 0.92767,0.93137 1.33839,1.45193 0.35775,0.55524 0.68885,1.12658 0.89561,1.75634 0.20537,0.77467 0.22016,1.58064 0.23747,2.37684 0.0106,0.84626 0.005,1.69261 0.003,2.53891 0.008,0.86192 0.0219,1.71682 -0.1087,2.57027 -0.21135,0.71098 -0.43487,1.42507 -0.71759,2.112 -0.3504,0.71345 -0.69794,1.4262 -1.03077,2.14789 -0.30728,0.60403 -0.65505,1.18952 -1.01109,1.76658 -0.38832,0.54747 -0.76817,1.10184 -1.16095,1.64653 -0.36295,0.54764 -0.65482,1.13479 -0.9773,1.70555 -0.34505,0.51342 -0.65195,1.05057 -0.99673,1.56445 -0.37098,0.48633 -0.67793,1.01839 -0.96294,1.55851 -0.37902,0.59134 -0.66273,1.23187 -0.98357,1.85436 -0.28252,0.59761 -0.55497,1.20176 -0.8668,1.78487 -0.27841,0.56622 -0.54338,1.14027 -0.84448,1.69495 -0.29783,0.5686 -0.55951,1.14326 -0.78275,1.74443 -0.31484,0.63157 -0.43152,1.31459 -0.50009,2.00914 -0.0584,0.79935 -0.0172,1.59715 -0.15701,2.38839 -0.17191,0.73594 -0.24429,1.48641 -0.28618,2.23919 -0.0353,0.83238 -0.0339,1.66574 -0.0347,2.49869 0.027,0.81974 -0.0519,1.64634 0.0417,2.4622 0.12681,0.72143 0.32589,1.43677 0.60475,2.11431 0.25966,0.61891 0.51127,1.24663 0.83398,1.83604 0.26749,0.60324 0.60965,1.16677 0.91798,1.74954 0.26017,0.61923 0.5775,1.22202 1.01904,1.73122 0.43363,0.52916 0.78315,1.11953 1.2368,1.632 0.45073,0.54328 0.80585,1.15605 1.27057,1.68738 0.29422,0.40978 0.67463,0.74408 1.00193,1.12488 0,0 -3.60366,2.17045 -3.60366,2.17045 l 0,0 c -0.32589,-0.38141 -0.69854,-0.72331 -0.99436,-1.1308 -0.45095,-0.54139 -0.82025,-1.1422 -1.26958,-1.68517 -0.44187,-0.52455 -0.80735,-1.10513 -1.24152,-1.63598 -0.4437,-0.54477 -0.79574,-1.15812 -1.05973,-1.8094 -0.30911,-0.58044 -0.6563,-1.13946 -0.91914,-1.74321 -0.32842,-0.60322 -0.58945,-1.24272 -0.85154,-1.87683 -0.29755,-0.7077 -0.51007,-1.45666 -0.65623,-2.20984 -0.12912,-0.83024 -0.0343,-1.67694 -0.0642,-2.51479 -1.3e-4,-0.8387 -0.002,-1.67764 0.024,-2.51604 0.0325,-0.769 0.0813,-1.54026 0.25538,-2.29263 0.17179,-0.77748 0.15621,-1.55354 0.18003,-2.34797 0.0523,-0.72538 0.12347,-1.4598 0.43665,-2.1272 0.14971,-0.30459 0.20907,-0.62062 0.34546,-0.93026 0.37933,-0.86114 -0.0929,0.27156 0.30462,-0.53202 0.0494,-0.0998 0.0786,-0.20845 0.11786,-0.31267 0.28771,-0.56289 0.59798,-1.11277 0.84562,-1.6934 0.29958,-0.59014 0.61901,-1.16941 0.87221,-1.78081 0.31152,-0.63414 0.60943,-1.26997 0.9676,-1.8801 0.34651,-0.51331 0.56675,-1.10729 0.94119,-1.60672 0.41688,-0.45447 0.61723,-1.04102 1.02612,-1.50119 0.30875,-0.59122 0.63994,-1.16408 0.96209,-1.74687 0.36436,-0.55571 0.74715,-1.1061 1.16994,-1.61888 0.33288,-0.58899 0.71067,-1.14843 1.02851,-1.74418 0.37948,-0.68652 0.62548,-1.44524 1.03951,-2.11741 0.27944,-0.66956 0.49121,-1.3553 0.76605,-2.02876 0.14883,-0.8339 0.16273,-1.66235 0.1385,-2.50957 0.002,-0.84351 0.007,-1.68705 1e-4,-2.53054 -0.012,-0.75779 -0.016,-1.52454 -0.1871,-2.26682 -0.17843,-0.58712 -0.49408,-1.11204 -0.82366,-1.62583 -0.39529,-0.51353 -0.81154,-0.99548 -1.31141,-1.41498 -0.47323,-0.47928 -0.95382,-0.95372 -1.50508,-1.34407 -0.62875,-0.40903 -1.27076,-0.79557 -1.93219,-1.15023 -0.71806,-0.34012 -1.40019,-0.73607 -2.09202,-1.12437 -0.73626,-0.4033 -1.47271,-0.81267 -2.25066,-1.131233 -1.24426,-0.591053 -2.50783,-1.138964 -3.75354,-1.727259 0,0 3.4979,-2.301497 3.4979,-2.301497 z"
       inkscape:connector-curvature="0" />
    <path
       style="fill:#0066ff;fill-opacity:1;stroke:none"
       id="path5716"
       d="m 237.67735,158.42216 c -1.16228,0.54004 -2.29675,1.13849 -3.43571,1.72618 5.94487,-3.56084 2.87805,-1.92402 1.86523,-0.48745 -0.43366,0.53884 -0.62321,1.15995 -0.808,1.81093 -0.27321,0.65783 -0.33696,1.36428 -0.46662,2.05616 -0.21057,0.69811 -0.32345,1.4126 -0.38491,2.13735 -0.0538,0.82438 -0.0529,1.65103 -0.0548,2.47678 -1.7e-4,0.84637 0.002,1.69273 0.003,2.53909 0.002,0.79846 -0.0439,1.5924 0.10497,2.37979 0.10026,0.70062 0.27025,1.37618 0.45984,2.05629 0.15486,0.67436 0.41969,1.31981 0.66359,1.96641 0.24224,0.71122 0.55101,1.39889 0.82948,2.09739 0.25814,0.82852 0.6294,1.61394 0.92065,2.42998 0.33917,0.66167 0.54845,1.37263 0.82737,2.05886 0.29129,0.72637 0.54412,1.45429 0.69204,2.224 0.20553,0.66896 0.3552,1.34998 0.59349,2.00798 0.18301,0.67088 0.35858,1.33985 0.55033,2.00907 0.18405,0.77147 0.4168,1.53082 0.66394,2.2843 0.17579,0.77518 0.47467,1.51229 0.66858,2.28209 0.14342,0.70346 0.38389,1.37544 0.5064,2.08484 0.13691,0.78241 0.0709,1.58164 0.17102,2.36591 0.16895,0.73374 0.27294,1.47603 0.33077,2.22603 0.0511,0.83284 0.0517,1.66765 0.0541,2.50172 6.9e-4,0.84643 -9.6e-4,1.69287 -0.002,2.53931 -7.4e-4,0.8458 -8.6e-4,1.69161 -9.5e-4,2.53741 0.0684,0.78728 -0.0939,1.54628 -0.2361,2.31351 -0.0904,0.68732 -0.28856,1.3584 -0.56561,1.99272 -0.19486,0.60588 -0.56255,1.11853 -0.88966,1.65429 -0.30102,0.53727 -0.68561,1.01687 -1.00584,1.54178 -0.33583,0.52244 -0.61816,1.07837 -0.8931,1.6349 -0.25755,0.56029 -0.68086,1.00974 -1.03513,1.50491 -0.3503,0.50541 -0.66032,1.03834 -0.93515,1.58834 -0.28399,0.6452 -0.78892,1.14673 -1.34079,1.56924 -0.52902,0.34265 -1.04474,0.70323 -1.52244,1.11483 -0.2449,0.17469 -0.41823,0.41352 -0.59515,0.65136 0,0 -3.86234,1.65185 -3.86234,1.65185 l 0,0 c 0.20412,-0.24061 0.33514,-0.51454 0.55943,-0.73825 0.50921,-0.37942 0.95774,-0.83228 1.50907,-1.15833 0.58484,-0.3044 1.07981,-0.78711 1.43522,-1.34088 0.22413,-0.58057 0.55034,-1.13566 0.91116,-1.63872 0.28505,-0.54819 0.77268,-0.93403 1.04097,-1.49235 0.33985,-0.52627 0.54621,-1.13359 0.87833,-1.66704 0.36704,-0.48124 0.63293,-1.03363 1.02462,-1.50114 0.26625,-0.56668 0.7304,-1.01262 0.90317,-1.62625 0.27373,-0.60802 0.54087,-1.23158 0.6129,-1.90209 0.1249,-0.75045 0.35287,-1.48022 0.27328,-2.25058 7e-5,-0.84591 1.6e-4,-1.69182 8.2e-4,-2.53773 7.4e-4,-0.84603 0.002,-1.69206 0.002,-2.53809 -0.001,-0.82499 -4.7e-4,-1.65055 -0.0429,-2.47469 -0.0493,-0.74039 -0.13848,-1.47544 -0.31799,-2.19704 -0.12964,-0.77949 -0.0468,-1.57704 -0.16833,-2.36006 -0.10881,-0.7031 -0.34954,-1.36308 -0.4911,-2.0568 -0.17886,-0.76368 -0.48551,-1.4874 -0.64805,-2.25579 -0.24915,-0.7582 -0.49601,-1.51932 -0.67946,-2.29597 -0.18367,-0.66151 -0.37685,-1.31445 -0.5362,-1.98174 -0.24774,-0.68057 -0.4035,-1.38161 -0.62119,-2.07277 -0.12947,-0.74661 -0.37169,-1.44568 -0.65649,-2.14604 -0.27991,-0.69364 -0.48846,-1.41106 -0.82858,-2.0805 -0.28189,-0.81353 -0.66426,-1.58832 -0.91624,-2.41298 -0.27867,-0.70097 -0.59402,-1.38888 -0.83407,-2.10328 -0.24902,-0.65781 -0.5294,-1.31221 -0.68531,-1.99878 -0.18797,-0.69129 -0.38278,-1.37047 -0.47319,-2.08408 -0.16764,-0.81329 -0.15234,-1.62606 -0.13762,-2.45465 -7.9e-4,-0.84665 -0.002,-1.6933 -0.003,-2.53995 4.8e-4,-0.83438 -0.002,-1.6693 0.0388,-2.50293 0.0477,-0.74131 0.12067,-1.48412 0.35252,-2.19449 0.19729,-0.68363 0.15219,-1.4262 0.44948,-2.08908 0.24539,-0.64191 0.26925,-1.3679 0.77028,-1.89795 1.02371,-1.95611 3.52367,-2.83302 5.23265,-3.82814 1.13704,-0.59621 2.2924,-1.15791 3.44429,-1.72449 0,0 -3.26976,2.6155 -3.26976,2.6155 z"
       inkscape:connector-curvature="0" />
  </g>
</svg>
