<?xml version="1.0" encoding="UTF-8" standalone="no"?>
<!-- Created with Inkscape (http://www.inkscape.org/) -->

<svg
   xmlns:dc="http://purl.org/dc/elements/1.1/"
   xmlns:cc="http://creativecommons.org/ns#"
   xmlns:rdf="http://www.w3.org/1999/02/22-rdf-syntax-ns#"
   xmlns:svg="http://www.w3.org/2000/svg"
   xmlns="http://www.w3.org/2000/svg"
   xmlns:sodipodi="http://sodipodi.sourceforge.net/DTD/sodipodi-0.dtd"
   xmlns:inkscape="http://www.inkscape.org/namespaces/inkscape"
   width="744.09448819"
   height="1052.3622047"
   id="svg2"
   version="1.1"
   inkscape:version="0.48.4 r9939"
   sodipodi:docname="New document 1">
  <defs
     id="defs4" />
  <sodipodi:namedview
     id="base"
     pagecolor="#ffffff"
     bordercolor="#666666"
     borderopacity="1.0"
     inkscape:pageopacity="0.0"
     inkscape:pageshadow="2"
     inkscape:zoom="0.78965209"
     inkscape:cx="372.04724"
     inkscape:cy="526.18109"
     inkscape:document-units="px"
     inkscape:current-layer="layer1"
     showgrid="false"
     inkscape:window-width="1920"
     inkscape:window-height="1018"
     inkscape:window-x="1432"
     inkscape:window-y="-8"
     inkscape:window-maximized="1" />
  <metadata
     id="metadata7">
    <rdf:RDF>
      <cc:Work
         rdf:about="">
        <dc:format>image/svg+xml</dc:format>
        <dc:type
           rdf:resource="http://purl.org/dc/dcmitype/StillImage" />
        <dc:title></dc:title>
      </cc:Work>
    </rdf:RDF>
  </metadata>
  <g
     inkscape:label="Layer 1"
     inkscape:groupmode="layer"
     id="layer1">
    <path
       sodipodi:type="arc"
       style="fill:#4d4d4d;fill-opacity:1;stroke:none"
       id="path2985"
       sodipodi:cx="181.7256"
       sodipodi:cy="188.0575"
       sodipodi:rx="20.895279"
       sodipodi:ry="19.628897"
       d="m 202.62088,188.0575 a 20.895279,19.628897 0 1 1 -41.79056,0 20.895279,19.628897 0 1 1 41.79056,0 z"
       transform="translate(287.46837,-2.532761)" />
    <text
       xml:space="preserve"
       style="font-size:11px;font-style:normal;font-variant:normal;font-weight:normal;font-stretch:normal;text-align:start;line-height:125%;letter-spacing:0px;word-spacing:0px;text-anchor:start;fill:#000000;fill-opacity:1;stroke:none;font-family:Arial;-inkscape-font-specification:Arial"
       x="520.48236"
       y="187.42432"
       id="text2987"
       sodipodi:linespacing="125%"><tspan
         sodipodi:role="line"
         id="tspan2989"
         x="520.48236"
         y="187.42432">Waiting for button press</tspan></text>
    <path
       transform="translate(285.92997,107.00915)"
       sodipodi:type="arc"
       style="fill:#4d4d4d;fill-opacity:1;stroke:none"
       id="path2985-1"
       sodipodi:cx="181.7256"
       sodipodi:cy="188.0575"
       sodipodi:rx="20.895279"
       sodipodi:ry="19.628897"
       d="m 202.62088,188.0575 a 20.895279,19.628897 0 1 1 -41.79056,0 20.895279,19.628897 0 1 1 41.79056,0 z" />
    <text
       xml:space="preserve"
       style="font-size:11px;font-style:normal;font-variant:normal;font-weight:normal;font-stretch:normal;text-align:start;line-height:125%;letter-spacing:0px;word-spacing:0px;text-anchor:start;fill:#000000;fill-opacity:1;stroke:none;font-family:Arial;-inkscape-font-specification:Arial"
       x="518.94397"
       y="296.96622"
       id="text2987-7"
       sodipodi:linespacing="125%"><tspan
         sodipodi:role="line"
         id="tspan2989-4"
         x="518.94397"
         y="296.96622">Waiting for button release</tspan></text>
    <path
       transform="translate(287.19635,209.58598)"
       sodipodi:type="arc"
       style="fill:#000000;fill-opacity:1;stroke:none"
       id="path2985-0"
       sodipodi:cx="181.7256"
       sodipodi:cy="188.0575"
       sodipodi:rx="20.895279"
       sodipodi:ry="19.628897"
       d="m 202.62088,188.0575 a 20.895279,19.628897 0 1 1 -41.79056,0 20.895279,19.628897 0 1 1 41.79056,0 z" />
    <text
       xml:space="preserve"
       style="font-size:11px;font-style:normal;font-variant:normal;font-weight:normal;font-stretch:normal;text-align:start;line-height:125%;letter-spacing:0px;word-spacing:0px;text-anchor:start;fill:#000000;fill-opacity:1;stroke:none;font-family:Arial;-inkscape-font-specification:Arial"
       x="520.21039"
       y="399.54306"
       id="text2987-9"
       sodipodi:linespacing="125%"><tspan
         sodipodi:role="line"
         id="tspan2989-48"
         x="520.21039"
         y="399.54306">Done</tspan></text>
    <path
       style="fill:#000000;fill-opacity:1;stroke:none"
       id="path3026"
       d="m 469.39012,213.00139 c -0.77538,3.8253 -1.54009,7.64682 -2.0137,11.52286 -0.31581,2.79315 -0.36707,5.60511 -0.39152,8.41288 -0.01,2.52927 0.001,5.05855 0.006,7.58782 0.0824,2.26788 -0.57183,4.46731 -0.89322,6.69726 -0.29859,2.39571 -0.33217,4.81298 -0.36242,7.22375 -0.0175,2.10671 -0.013,4.21351 -0.0109,6.32027 0,0 -4.47255,2.27949 -4.47255,2.27949 l 0,0 c -0.002,-2.10857 -0.007,-4.21717 0.007,-6.3257 0.026,-2.4285 0.0536,-4.86278 0.32977,-7.27854 0.29765,-2.21679 0.96517,-4.39261 0.92928,-6.63652 -0.005,-2.53097 -0.0158,-5.06195 -0.008,-7.59292 0.0221,-2.82658 0.0686,-5.65746 0.37981,-8.47001 0.46574,-3.87298 1.21464,-7.69439 2.0049,-11.51292 0,0 4.4944,-2.22772 4.4944,-2.22772 z"
       inkscape:connector-curvature="0" />
    <path
       style="fill:#000000;fill-opacity:1;stroke:none"
       id="path3028"
       d="m 451.60603,258.83516 c 3.63301,1.48759 6.81512,3.81255 9.77908,6.34914 1.83353,1.58918 3.0932,2.52526 5.46774,1.72555 -0.46981,0.2114 2.26491,-1.21837 1.70649,-0.89954 -8.52361,4.86648 0.95746,-1.02113 3.61225,-2.01989 1.79349,-0.82931 3.54188,-1.77692 5.39011,-2.48148 1.33866,-0.37156 0.65527,-0.21009 2.05105,-0.48065 0,0 -4.00426,3.03924 -4.00426,3.03924 l 0,0 c -1.36444,0.31542 -0.69808,0.13021 -2.00017,0.55168 -1.81917,0.77268 -3.58651,1.66537 -5.38719,2.48045 -2.00578,0.87217 -1.88384,0.86623 2.41601,-1.57596 0.29777,-0.16912 -0.5663,0.38577 -0.85939,0.56286 -2.27733,1.37598 -4.4608,2.87679 -6.91617,3.8954 -2.30472,0.5407 -4.04405,-0.61348 -5.72496,-2.14803 -2.94598,-2.51039 -6.09924,-4.80217 -9.72158,-6.24124 0,0 4.19099,-2.75753 4.19099,-2.75753 z"
       inkscape:connector-curvature="0" />
    <path
       style="fill:#000000;fill-opacity:1;stroke:none"
       id="path3030"
       d="m 470.79565,321.88525 c -0.0252,4.18611 -0.0136,8.37234 -0.007,12.55849 0.005,2.89066 0.007,5.78132 0.008,8.67198 7.5e-4,2.52956 6.7e-4,5.05913 6.5e-4,7.58869 -4e-5,2.52697 -8e-5,5.05393 -9e-5,7.5809 -2e-5,2.53244 -2e-5,5.06489 -2e-5,7.59733 0.18294,1.43519 0.0687,0.72621 0.3409,2.12723 0,0 -4.43348,2.36912 -4.43348,2.36912 l 0,0 c -0.29155,-1.44952 -0.1636,-0.71062 -0.38026,-2.21732 0,-2.53244 0,-5.06488 -2e-5,-7.59732 -10e-6,-2.52694 -5e-5,-5.05387 -9e-5,-7.58081 -2e-5,-2.52978 -10e-5,-5.05956 6.4e-4,-7.58934 10e-4,-2.89349 0.003,-5.78698 0.008,-8.68047 0.006,-4.18367 0.018,-8.36741 -0.007,-12.55104 0,0 4.46974,-2.27744 4.46974,-2.27744 z"
       inkscape:connector-curvature="0" />
    <path
       style="fill:#000000;fill-opacity:1;stroke:none"
       id="path3032"
       d="m 455.85354,364.85767 c 3.65617,0.95376 7.1036,2.39887 10.43108,4.16192 1.59414,1.09889 3.2284,2.65428 5.28035,2.01038 1.88656,-0.73342 1.682,-0.69073 -2.96306,1.75682 -0.24453,0.12885 0.46925,-0.29357 0.68984,-0.46012 0.7155,-0.54022 1.37569,-1.18279 2.05987,-1.76191 3.09075,-2.18684 6.54247,-4.02367 10.13993,-5.25819 0,0 -3.96253,3.09398 -3.96253,3.09398 l 0,0 c -0.9985,0.3779 -1.95267,0.82265 -2.93203,1.24565 -0.34357,0.14838 -1.3468,0.6404 -1.03684,0.43067 0.77979,-0.52762 5.17697,-3.141 2.45409,-1.39843 -2.55082,2.16199 -5.07843,4.54778 -8.46618,5.39389 -2.16229,0.22273 -3.76913,-1.12475 -5.45756,-2.30784 -3.29157,-1.7516 -6.72387,-3.15981 -10.35791,-4.04832 0,0 4.12095,-2.8585 4.12095,-2.8585 z"
       inkscape:connector-curvature="0" />
    <path
       style="fill:#000000;fill-opacity:1;stroke:none"
       id="path3034"
       d="m 450.11339,204.18491 c -1.44989,3.61785 -3.06259,7.17965 -4.85277,10.6421 -0.9586,1.98816 -2.25329,3.78734 -3.75046,5.40162 -2.27637,2.69677 -5.67841,4.09823 -8.822,5.57447 -1.92799,0.56697 -3.74846,1.39321 -5.71201,1.84915 -2.33026,0.43947 -4.70982,0.47019 -7.07311,0.50742 -2.53024,0.0228 -5.06063,0.011 -7.59093,0.006 -2.13443,-0.48196 -4.36077,-0.63569 -6.45968,-1.24804 -1.89341,-0.54437 -3.77445,-1.2251 -5.50925,-2.16652 -1.89632,-0.87773 -3.54932,-2.16926 -5.41298,-3.09912 -1.60724,-1.0638 -3.26115,-2.04914 -4.84914,-3.13735 -1.30192,-1.29805 -2.65052,-2.56383 -3.61357,-4.14088 -1.05961,-1.53466 -1.99831,-3.18618 -2.74222,-4.89946 -1.182,-1.65515 -1.50478,-3.6293 -2.11721,-5.51089 -0.8067,-2.05409 -1.09084,-4.22961 -1.26627,-6.41266 -0.1503,-2.48981 -0.14244,-4.98559 -0.14473,-7.47889 -0.11603,-2.30621 0.14321,-4.58434 0.88151,-6.77252 0.60771,-1.92176 1.62177,-3.64815 2.57319,-5.41027 1.06828,-1.71641 2.18237,-3.42963 3.75156,-4.72567 2.00301,-1.70665 4.2956,-2.71904 6.62883,-4.05385 1.1712,-0.67003 -4.68199,2.68456 -3.52191,1.99547 4.85579,-2.88436 3.38428,-2.23909 6.01623,-3.30873 1.91349,-0.72303 3.76355,-1.43868 5.7954,-1.7823 2.4001,-0.31678 4.82641,-0.32239 7.24299,-0.34013 2.5348,-0.007 5.06961,0.002 7.60441,0.007 2.14272,0.1392 4.05707,0.98958 6.0472,1.68361 1.70116,0.87332 3.26743,1.93534 4.93554,2.87281 1.8861,0.88793 3.66699,2.0335 5.21597,3.43063 0.95769,0.77755 1.8674,1.62439 2.7107,2.52548 0,0 -4.29867,2.61763 -4.29867,2.61763 l 0,0 c -0.84282,-0.88228 -1.74105,-1.7177 -2.68612,-2.48912 -1.54708,-1.3525 -3.2976,-2.46107 -5.15466,-3.33985 -1.65069,-0.9132 -3.1769,-2.0092 -4.89061,-2.80184 -1.93922,-0.70281 -3.84352,-1.4686 -5.94109,-1.54948 -2.53387,-0.005 -5.06777,-0.0155 -7.60162,-0.002 -2.40213,0.0252 -4.81731,0.0384 -7.19602,0.41369 -1.99425,0.3983 -3.83479,1.15427 -5.72864,1.87596 -0.28917,0.13468 -1.1384,0.57251 -0.86752,0.40404 1.14324,-0.71103 4.65316,-2.71092 3.4891,-2.03452 -16.64379,9.67128 3.99448,-2.63878 -3.1247,2.01528 -1.67114,1.14565 -2.71631,2.87423 -3.84223,4.52491 -0.91494,1.76469 -2.00405,3.43447 -2.59764,5.34791 -0.84601,2.09756 -1.05614,4.36963 -0.96848,6.61685 0.001,2.4813 -0.008,4.96477 0.12984,7.44313 0.16099,2.14469 0.41829,4.28582 1.21478,6.30296 0.62128,1.86337 0.90937,3.83159 2.09663,5.47096 0.72758,1.69496 1.66534,3.31939 2.70822,4.83681 0.92676,1.51044 2.23251,2.73182 3.50091,3.95636 1.59301,1.04978 3.19085,2.08409 4.81277,3.09003 1.84306,0.96911 3.52486,2.21829 5.419,3.10056 1.73728,0.87622 3.56579,1.57551 5.44565,2.07782 2.08808,0.5258 4.25349,0.79717 6.3763,1.14471 2.52855,0.005 5.05727,0.0173 7.5857,-0.0146 2.34522,-0.0484 4.71074,-0.0934 7.01097,-0.60265 1.9255,-0.51253 3.77276,-1.27987 5.65118,-1.93307 1.60191,-0.79567 4.81156,-2.74444 -1.78094,1.24891 -0.30728,0.18613 2.20678,-1.39794 2.02206,-1.75545 1.56893,-1.51086 2.84109,-3.34016 3.82815,-5.27752 1.85134,-3.40646 3.39808,-6.98699 4.8841,-10.5651 0,0 4.53829,-2.13135 4.53829,-2.13135 z"
       inkscape:connector-curvature="0" />
    <path
       style="fill:#000000;fill-opacity:1;stroke:none"
       id="path3036"
       d="m 435.88787,162.06739 c 1.56434,3.64396 3.08848,7.31725 4.47254,11.03526 0.86288,1.88849 1.91382,3.19821 -0.16268,4.52627 -3.55021,3.25212 -6.12931,2.79854 -10.04784,3.78357 -2.13146,0.65603 -4.34257,0.89521 -6.55732,1.04292 -0.34755,0.0786 -0.69511,0.15715 -1.04266,0.23572 0,0 4.00814,-3.03355 4.00814,-3.03355 l 0,0 c 0.35884,-0.0613 0.71769,-0.12263 1.07654,-0.18394 2.20493,-0.17376 4.3885,-0.48082 6.51696,-1.10511 1.06056,-0.20823 2.13506,-0.28489 3.19164,-0.50944 1.85639,-0.39455 5.02776,-2.20813 -1.84471,1.59243 0.37094,-0.22615 0.81142,-0.33121 1.16614,-0.58205 1.01491,-0.71768 -0.48717,-2.63336 -0.68257,-3.3373 -1.35622,-3.70759 -2.85424,-7.37566 -4.45382,-10.98246 0,0 4.35964,-2.48232 4.35964,-2.48232 z"
       inkscape:connector-curvature="0" />
    <path
       style="fill:#000000;fill-opacity:1;stroke:none"
       id="path3038"
       d="m 503.4424,111.71549 c -0.79121,3.92352 -1.57634,7.86694 -2.84939,11.66809 -0.7468,2.22508 -1.55255,4.42282 -2.3265,6.63778 -0.79899,1.90455 -1.84968,3.67848 -2.9507,5.41923 -0.88722,1.90567 -1.78414,3.80746 -2.71402,5.6967 -1.03184,1.78887 -2.13493,3.54905 -3.02395,5.41487 -0.8839,1.64849 -1.9161,3.20635 -2.91559,4.78582 -0.98431,1.58804 -1.76783,3.28822 -2.64848,4.93311 0,0 -4.59516,2.05107 -4.59516,2.05107 l 0,0 c 0.95831,-1.60746 1.64992,-3.36856 2.63341,-4.96587 1.05832,-1.52041 1.9565,-3.14979 2.95105,-4.71423 0.82527,-1.89765 1.95327,-3.66101 3.02305,-5.42741 0.90964,-1.91257 1.90284,-3.77938 2.68929,-5.74555 1.07369,-1.73214 2.15415,-3.44901 2.99832,-5.3128 0.7376,-2.23273 1.62002,-4.40936 2.3424,-6.64932 1.35679,-3.75333 2.11078,-7.70398 2.86889,-11.61284 0,0 4.51738,-2.17865 4.51738,-2.17865 z"
       inkscape:connector-curvature="0" />
    <path
       style="fill:#000000;fill-opacity:1;stroke:none"
       id="path3040"
       d="m 472.75135,145.58448 c 2.03746,3.44352 4.11616,6.86034 6.14179,10.312 1.02001,1.77235 1.71198,4.18668 3.71422,5.07074 1.68497,0.30793 3.215,-0.5801 4.82145,-0.98351 2.00293,-0.5569 4.04612,-1.08363 6.02767,-1.73601 2.26831,-0.72874 4.61283,-1.02419 6.89073,-1.71008 1.40984,-0.36637 0.69771,-0.20125 2.13659,-0.49444 0,0 -4.00279,3.03937 -4.00279,3.03937 l 0,0 c -1.42111,0.31986 -0.7166,0.14468 -2.11368,0.52497 -2.27756,0.65925 -4.63855,0.93299 -6.88428,1.71552 -2.00806,0.59752 -4.01472,1.21562 -6.04557,1.72168 -1.67061,0.46682 -3.29505,1.31438 -5.04191,0.68798 -1.9872,-1.14312 -2.81804,-3.37849 -3.83875,-5.32989 -2.00705,-3.45724 -4.05601,-6.88453 -6.13904,-10.29608 0,0 4.33357,-2.52225 4.33357,-2.52225 z"
       inkscape:connector-curvature="0" />
    <path
       style="fill:#000000;fill-opacity:1;stroke:none"
       id="path3042"
       d="m 447.16638,314.14533 c -2.58718,2.915 -5.34543,5.6392 -8.34451,8.12767 -3.40681,2.62777 -7.25738,4.2541 -11.37064,5.26066 -2.47758,0.5337 -5.01713,0.60976 -7.54121,0.66458 -2.53484,0.0335 -5.07001,0.0194 -7.60498,0.0135 -2.22082,0.0861 -4.35048,-0.53358 -6.38077,-1.36384 -1.64814,-0.86746 -2.92914,-2.19524 -4.31498,-3.40207 -1.46573,-1.37574 -2.75618,-2.81849 -3.6873,-4.61099 -1.30055,-1.83993 -1.90923,-3.91295 -2.25218,-6.10869 -0.28927,-2.45901 -0.27835,-4.94004 -0.28536,-7.41217 0.002,-2.53661 0.012,-5.0732 0.0171,-7.60979 -0.006,-2.44643 -0.1136,-4.87207 0.34122,-7.28379 0.28713,-1.96925 1.19737,-3.6998 2.41107,-5.24632 1.12769,-1.397 2.39437,-2.68367 3.69087,-3.92466 3.17916,-2.79975 6.4002,-3.81027 10.32434,-4.06811 2.50415,-0.10851 5.0117,-0.0828 7.51749,-0.0744 2.14058,0.3202 4.23578,0.75921 6.27272,1.48307 1.7868,0.66175 3.71844,1.29185 5.16463,2.56812 1.44084,1.07979 2.81919,2.23683 4.23747,3.34757 0.21823,0.21584 0.43646,0.43168 0.65469,0.64752 0,0 -4.28842,2.63511 -4.28842,2.63511 l 0,0 c -0.20901,-0.20115 -0.41803,-0.4023 -0.62704,-0.60345 -1.41074,-1.12976 -2.82153,-2.25515 -4.24754,-3.36343 -1.4421,-1.1888 -3.32964,-1.76663 -5.06038,-2.41408 -1.99527,-0.69168 -4.07076,-1.1059 -6.16818,-1.35108 -2.49905,-0.007 -5.00086,-0.0329 -7.49705,0.10766 -1.12224,0.0939 -2.24444,0.17962 -3.33632,0.47763 -0.32361,0.0883 -1.22784,0.51351 -0.95431,0.31934 0.0595,-0.0422 5.41034,-3.27449 2.66662,-1.61688 -1.34401,1.17303 -2.56218,2.51056 -3.71587,3.86488 -1.28299,1.40918 -2.21063,3.12277 -2.52218,5.01732 -0.49463,2.38354 -0.41804,4.77167 -0.3906,7.19982 -0.005,2.53592 -0.0145,5.07183 -0.0179,7.60776 0.005,2.44914 -0.01,4.90618 0.25478,7.34429 0.31555,2.15023 0.89715,4.16578 2.17436,5.96341 0.89916,1.73751 2.17755,3.11636 3.59794,4.44706 1.33362,1.18484 2.59972,2.45801 4.22061,3.26087 1.9956,0.79663 4.09618,1.30346 6.26238,1.21255 2.53236,0.006 5.06503,0.0201 7.59713,-0.0244 2.50497,-0.0685 5.02594,-0.16867 7.47381,-0.75534 1.21378,-0.32223 2.39569,-0.69036 3.57906,-1.11164 2.16453,-0.77059 1.87869,-0.82493 -2.0106,1.50519 -0.39415,0.23614 0.77832,-0.48853 1.16748,-0.7328 3.03659,-2.4269 5.78182,-5.14861 8.37388,-8.04287 0,0 4.61867,-1.95479 4.61867,-1.95479 z"
       inkscape:connector-curvature="0" />
    <path
       style="fill:#000000;fill-opacity:1;stroke:none"
       id="path3044"
       d="m 434.75994,274.75529 c 2.36889,3.15837 4.26333,6.63578 6.6125,9.80532 0.87576,1.4603 2.83266,2.62845 2.19029,4.50635 -2.51976,2.46623 -6.26791,3.77431 -9.69927,4.44729 -2.03825,0.7265 -4.12275,1.21163 -6.14783,1.96542 -1.32687,0.31009 -2.57345,0.77731 -3.84163,1.26628 0,0 3.95857,-3.10364 3.95857,-3.10364 l 0,0 c 1.26571,-0.48249 2.54905,-0.8702 3.84479,-1.26058 2.03002,-0.74163 4.13427,-1.2279 6.18763,-1.90232 1.12552,-0.24868 2.20508,-0.52962 3.28525,-0.93643 0.29802,-0.11224 1.15054,-0.53358 0.88709,-0.35467 -2.36239,1.60425 -5.08053,2.93529 -3.0806,1.94173 1.17641,-1.31939 -1.40358,-2.89336 -1.89496,-4.01682 -2.3321,-3.19734 -4.22266,-6.69242 -6.63541,-9.83568 0,0 4.33358,-2.52225 4.33358,-2.52225 z"
       inkscape:connector-curvature="0" />
    <text
       xml:space="preserve"
       style="font-size:11px;font-style:normal;font-variant:normal;font-weight:normal;font-stretch:normal;text-align:start;line-height:125%;letter-spacing:0px;word-spacing:0px;text-anchor:start;fill:#000000;fill-opacity:1;stroke:none;font-family:Arial;-inkscape-font-specification:Arial"
       x="482.49097"
       y="235.54677"
       id="text3046"
       sodipodi:linespacing="125%"><tspan
         sodipodi:role="line"
         id="tspan3048"
         x="482.49097"
         y="235.54677">Button pressed on some gamepad</tspan></text>
    <text
       xml:space="preserve"
       style="font-size:11px;font-style:normal;font-variant:normal;font-weight:normal;font-stretch:normal;text-align:start;line-height:125%;letter-spacing:0px;word-spacing:0px;text-anchor:start;fill:#000000;fill-opacity:1;stroke:none;font-family:Arial;-inkscape-font-specification:Arial"
       x="488.82288"
       y="349.521"
       id="text3050"
       sodipodi:linespacing="125%"><tspan
         sodipodi:role="line"
         id="tspan3052"
         x="488.82288"
         y="349.521">No button pressed on any gamepad</tspan></text>
    <text
       xml:space="preserve"
       style="font-size:11px;font-style:normal;font-variant:normal;font-weight:normal;font-stretch:normal;text-align:start;line-height:125%;letter-spacing:0px;word-spacing:0px;text-anchor:start;fill:#000000;fill-opacity:1;stroke:none;font-family:Arial;-inkscape-font-specification:Arial"
       x="520.48236"
       y="125.37167"
       id="text3054"
       sodipodi:linespacing="125%"><tspan
         sodipodi:role="line"
         id="tspan3056"
         x="520.48236"
         y="125.37167">Going into initial state</tspan></text>
    <text
       xml:space="preserve"
       style="font-size:11px;font-style:normal;font-variant:normal;font-weight:normal;font-stretch:normal;text-align:end;line-height:125%;letter-spacing:0px;word-spacing:0px;text-anchor:end;fill:#000000;fill-opacity:1;stroke:none;font-family:Arial;-inkscape-font-specification:Arial"
       x="360.91843"
       y="195.02258"
       id="text3058"
       sodipodi:linespacing="125%"><tspan
         sodipodi:role="line"
         id="tspan3060"
         x="360.91843"
         y="195.02258">No button pressed</tspan><tspan
         sodipodi:role="line"
         x="360.91843"
         y="208.77258"
         id="tspan3068">on any gamepad</tspan></text>
    <text
       xml:space="preserve"
       style="font-size:11px;font-style:normal;font-variant:normal;font-weight:normal;font-stretch:normal;text-align:end;line-height:125%;letter-spacing:0px;word-spacing:0px;text-anchor:end;fill:#000000;fill-opacity:1;stroke:none;font-family:Arial;-inkscape-font-specification:Arial"
       x="377.38141"
       y="303.9313"
       id="text3062"
       sodipodi:linespacing="125%"><tspan
         sodipodi:role="line"
         id="tspan3064"
         x="377.38141"
         y="303.9313">Some button still pressed</tspan><tspan
         sodipodi:role="line"
         x="377.38141"
         y="317.6813"
         id="tspan3066">on some gamepad</tspan></text>
  </g>
</svg>
